<svg width="5590" height="4546" viewBox="0 0 5590 4546" fill="none" xmlns="http://www.w3.org/2000/svg">
<path fill-rule="evenodd" clip-rule="evenodd" d="M448.301 0L446.802 4157.98L379.255 4158.92C342.123 4159.42 309.876 4161.7 307.6 4163.97C305.269 4166.25 1307.88 4168.14 4767.74 4168.14V4220.87C4767.74 4249.89 4768.35 4274.93 4769.13 4276.59C4769.91 4278.2 3753.97 4279.7 2511.53 4279.92C1269.09 4280.14 215.076 4282.09 169.285 4284.31C123.495 4286.53 1252.43 4288.75 2678.04 4289.25C4103.64 4289.69 5266.99 4288.25 5263.22 4285.97C5257.89 4282.81 5256.39 3827.46 5256.12 8.159L5207.61 6.32738C5180.91 5.32832 5157.82 3.2747 5156.27 1.77611C5154.71 0.277515 5207.83 -0.166503 5394.93 2.60867L5394.87 124.716C5394.82 191.875 5395.43 1154.08 5397.7 4279.14H5511.49V4340.2C5511.49 4383.49 5513.48 4402.25 5518.42 4404.75C5523.7 4407.36 5523.36 4409.36 5517.04 4412.96C5511.82 4415.96 5523.7 4417.79 5589.19 4417.9L5589.86 4469.24C5590.19 4497.49 5589.91 4525.58 5589.3 4531.68C5588.64 4537.79 5587.36 4543.45 5586.47 4544.28C5585.58 4545.12 4365.12 4545.78 2874.3 4545.73C1383.48 4545.67 126.881 4545.62 0 4545.56V4417.9H66.6041L68.1582 4376.28L72.1544 4398.48C74.8186 4413.41 76.3727 4397.53 77.7047 4279.14H188.712V4151.49H305.269L305.213 2079.82C305.213 940.394 304.936 6.60493 304.603 4.66231C304.214 2.71969 336.462 0.888054 448.301 0ZM1395.91 4427.62C2162.13 4428.39 3417.18 4428.39 4184.96 4427.62C4952.68 4426.84 4325.77 4426.23 2791.82 4426.23C1257.82 4426.23 629.686 4426.84 1395.91 4427.62Z" fill="#AA642A"/>
<path fill-rule="evenodd" clip-rule="evenodd" d="M1709.51 23.4214C1709.51 25.697 1724.49 27.5841 1742.81 27.5841H1776.11V2036.81H1715.06V2286.57H1648.45C1650.62 2311.72 1649.29 2321.09 1646.9 2323.59C1644.51 2326.15 1642.68 1809.3 1642.74 1175.12L1642.9 22.0338C1618.76 24.6979 1617.76 28.0837 1615.15 72.6529L1612.38 120.441L1259.93 119.165C1258.6 58.9435 1257.99 37.6857 1257.71 33.1345C1257.38 28.5277 1250.94 24.0874 1243.28 23.1994L1229.4 21.5897L1234.95 4168.14H1104.52L1107.3 22.0338H438.369L444.03 4176.46C236.337 4176.46 191.989 4178.46 192.878 4182.01C193.821 4185.68 962.987 4188.51 2479.62 4190.34L4764.97 4193.11V4301.4C1220.52 4301.34 185.884 4301.35 179.002 4301.35C172.119 4301.35 167.79 4303.84 169.289 4306.9C171.12 4310.56 1044.41 4312.45 2772.4 4312.45C4500.38 4312.45 5373.67 4310.56 5375.51 4306.9C5377.28 4303.4 5357.02 4301.35 5320 4301.35H5261.72V22.0338C5238.08 21.5343 5105.09 21.5343 4950.91 21.7008C4796.72 21.8673 4657.51 22.0338 4641.47 22.0338H4612.33L4615.11 4168.14H4484.68C4484.12 1133.43 4482.73 202.42 4481.24 141.366C4479.74 80.3123 4476.8 28.4167 4474.69 26.0856C4472.52 23.6989 4467.08 23.0883 4462.48 24.7534C4455.87 27.0846 4454.43 36.7422 4455.54 72.0424L4456.93 116.39C4424.68 121.662 4406.53 121.274 4395.87 118.887C4385.21 116.556 4373.34 113.781 4369.51 112.726C4365.68 111.672 4362.57 113.337 4362.57 116.39C4362.57 119.997 4310.78 121.44 4215.6 120.552L4068.62 119.165C4071.79 54.6698 4071.73 32.8014 4070.57 28.9717C4069.35 25.142 4062.19 22.0338 4054.53 22.0338H4040.71C4045.26 1939.68 4044.37 2325.42 4040.65 2325.42C4037.6 2325.42 4035.1 2316.65 4035.1 2306V2286.57H3968.5L3971.27 2039.58L3915.77 2036.31V27.5841C3958.78 27.8061 3969.99 26.5296 3968.5 24.8645C3967 23.2549 3808.37 21.9228 3616.05 21.9228C3423.73 21.9228 3261.99 21.9783 3256.66 21.9783C3247.45 22.0338 3246.95 73.7075 3246.95 1029.42V2036.81H3113.74L3116.52 21.5897C3090.15 24.7534 3089.82 25.919 3090.49 74.762C3090.88 102.236 3089.38 120.053 3087.21 114.391C3083.55 104.956 3082.61 104.845 3076.28 113.004C3070.06 120.996 3043.92 121.94 2833.45 121.94H2597.56C2592.07 98.2954 2592.07 75.8166 2594.01 56.7234C2597.51 22.4778 2597.4 22.0338 2583.69 22.0338H2569.81L2572.59 2036.81H2436.6L2439.38 22.0338C2417.84 22.0893 2253.66 21.4232 2060.57 20.6462C1867.47 19.8692 1709.51 21.1457 1709.51 23.4214ZM1254.38 585.393V721.376H1620.7V449.41H1254.38V585.393ZM2590.85 495.2C2590.24 520.399 2589.57 574.737 2589.46 615.92C2589.35 657.159 2590.51 700.452 2592.01 712.218L2594.79 733.587L3099.87 734.531C3104.14 670.591 3104.81 606.429 3104.03 550.704L3102.64 449.41H2592.01L2590.85 495.2ZM4062.85 585.393V721.376H4462.48V449.41H4062.85V585.393ZM1254.38 954.491V1159.85H1431.99V749.128H1254.38V954.491ZM1454.19 954.491V1159.85H1620.7V749.128H1454.19V954.491ZM4065.63 752.847C4063.07 754.845 4061.41 847.258 4061.91 958.21L4062.85 1159.85H4251.56V749.128C4111.03 749.128 4068.18 750.793 4065.63 752.847ZM4273.76 954.491V1159.85H4462.48V749.128H4273.76V954.491ZM2590.85 772.717C2589.68 776.547 2589.24 860.856 2589.85 960.041C2590.46 1059.28 2591.18 1146.03 2591.46 1152.92L2592.01 1165.4H2836.23V765.779C2622.09 765.779 2592.46 767.444 2590.85 772.717ZM2858.43 965.591V1165.4H3102.64V765.779H2858.43V965.591ZM1254.38 1301.39V1415.17H1620.7V1187.6H1254.38V1301.39ZM4064.13 1300L4065.63 1412.39L4462.48 1415.17V1187.6H4062.63L4064.13 1300ZM2588.51 1208.42C2586.46 1216.8 2586.68 1264.92 2588.96 1315.26C2591.23 1365.66 2594.12 1408.73 2595.34 1411.01C2596.56 1413.28 2711.18 1415.17 2850.1 1415.17H3102.64V1193.16H2592.18L2588.51 1208.42ZM1992.57 1358.28V1445.7H2098.03V1270.86H1992.57V1358.28ZM2136.88 1358.28V1445.7H2242.34V1270.86H2136.88V1358.28ZM1254.38 1731.54V1898.05H1620.7V1565.03H1254.38V1731.54ZM2586.46 1716.27L2589.18 1867.52L2592.01 1614.98C3033.76 1614.81 3090.21 1616.37 3095.37 1621.81C3100.59 1627.36 3102.42 1621.97 3103.7 1596.94L3105.42 1565.03H2583.69L2586.46 1716.27ZM4062.85 1731.54V1898.05H4462.48V1565.03H4062.85V1731.54ZM3088.43 1764.84C3088.43 1845.71 3089.21 1878.18 3090.15 1836.99C3091.1 1795.76 3091.1 1729.6 3090.15 1689.91C3089.21 1650.23 3088.43 1683.92 3088.43 1764.84ZM1254.38 2122.84V2319.87H1431.99L1434.77 1925.8H1254.38V2122.84ZM1454.19 2122.84V2319.87H1620.7V1925.8H1454.19V2122.84ZM2608.66 1981.3V2036.81H2830.68V1925.8H2608.66V1981.3ZM2847.33 1981.3V2036.81H3091.54V1925.8H2847.33V1981.3ZM4062.85 2122.84V2319.87H4251.56V1925.8H4062.85V2122.84ZM4273.76 2122.84V2319.87H4462.48V1925.8H4273.76V2122.84ZM2245.89 2057.68C2244.5 2059.62 2235.12 2061.78 2225.08 2062.45C2214.98 2063.17 2205.6 2065.17 2204.21 2066.94C2202.82 2068.67 2233.29 2070.11 2271.98 2070.11C2313.27 2070.11 2343.41 2067.83 2345.02 2064.56C2346.8 2061.01 2335.42 2060.12 2313.11 2062.17C2294.07 2063.89 2271.7 2062.78 2263.43 2059.73C2255.16 2056.68 2247.28 2055.73 2245.89 2057.68ZM3627.43 2057.73C3625.43 2059.84 3610.22 2061.73 3593.63 2061.89C3576.97 2062.06 3561.71 2064 3559.66 2066.17C3557.6 2068.33 3588.19 2070.05 3627.65 2070C3671.89 2069.94 3696.14 2068.06 3690.98 2065C3686.43 2062.34 3675.16 2060.84 3666 2061.78C3656.84 2062.67 3645.24 2061.28 3640.19 2058.62C3635.09 2056.01 3629.37 2055.57 3627.43 2057.73ZM2439.38 2062.73C2436.82 2064.72 2435.16 2104.69 2435.71 2151.53C2436.21 2198.32 2438.49 2236.51 2440.76 2236.4C2443.1 2236.29 2447.43 2232.18 2450.48 2227.24C2453.53 2222.3 2459.19 2219.91 2462.97 2221.91C2467.91 2224.46 2465.13 2231.12 2453.25 2244.94C2444.09 2255.6 2436.6 2269.98 2436.6 2276.86C2436.6 2289.24 2437.32 2289.35 2505.98 2287.96L2575.36 2286.57C2575.69 2235.45 2572.97 2225.57 2564.54 2217.19C2558.43 2211.09 2554.94 2203.59 2556.88 2200.54C2558.88 2197.38 2563.65 2199.71 2568.03 2206.09C2574.75 2215.75 2575.69 2206.98 2575.58 2138.1L2575.47 2059.01C2473.57 2059.01 2441.93 2060.67 2439.38 2062.73ZM2608.44 2176.95C2608.22 2273.36 2609.5 2293.62 2615.38 2287.9C2619.99 2283.46 2627.59 2282.46 2636.41 2285.13C2644.07 2287.46 2690.25 2288.63 2739.1 2287.68L2827.9 2286.07V2065.39C2802.09 2060.34 2763.29 2058.9 2724.94 2058.95C2676.27 2059.01 2653.45 2061.12 2649.24 2065.95C2644.35 2071.5 2642.46 2071.5 2639.8 2065.95C2637.97 2062.12 2630.2 2059.01 2622.54 2059.01H2608.66L2608.44 2176.95ZM2855.43 2069.17C2853.77 2074.27 2852.49 2124 2852.66 2179.73C2852.82 2241.45 2855.1 2282.08 2858.48 2283.8C2861.54 2285.3 2910.88 2286.91 2968.1 2287.35C3025.33 2287.74 3075.28 2286.52 3079.11 2284.57C3084.33 2281.91 3085.94 2253.6 3085.6 2170.01L3085.16 2059.01C3064.35 2059.01 3057.02 2061.51 3055.52 2064.56C3053.63 2068.22 3047.62 2068.13 3037.48 2064.28C3028.99 2061.06 2985.81 2058.79 2940.35 2059.23C2869.25 2059.84 2858.09 2061.12 2855.43 2069.17ZM3114.41 2142.26C3114.08 2188.05 3115.02 2225.52 3116.57 2225.52C3118.07 2225.52 3128.01 2216.14 3138.61 2204.7C3149.21 2193.27 3157.98 2182 3158.03 2179.73C3158.15 2177.45 3166.8 2167.46 3177.35 2157.53C3190.28 2145.32 3198.39 2141.26 3202.27 2145.04C3206.27 2148.87 3204.16 2154.47 3195.61 2163.08L3183.18 2175.57C3202.33 2194.94 3207.99 2202.43 3208.04 2204.7C3208.1 2206.98 3216.87 2217.58 3227.58 2228.29C3238.24 2238.95 3248.23 2247.72 3249.78 2247.72C3251.28 2247.72 3251.45 2245.83 3250.06 2243.56C3248.73 2241.28 3247.45 2198.82 3247.28 2149.2L3246.95 2059.01H3115.02L3114.41 2142.26ZM3327.49 2065.28C3318.33 2067.22 3345.8 2069.17 3388.54 2069.61C3431.28 2070.05 3464.14 2068.44 3461.58 2066.11C3459.03 2063.73 3431.56 2061.78 3400.53 2061.78C3369.5 2061.78 3336.64 2063.34 3327.49 2065.28ZM3776.51 2065.95C3775.29 2068.22 3802.37 2069.66 3836.73 2069.17C3871.09 2068.67 3890.4 2067.44 3879.75 2066.5C3869.03 2065.56 3841.95 2064.11 3819.52 2063.28C3797.1 2062.45 3777.73 2063.67 3776.51 2065.95ZM1750.69 2164.46C1750.69 2220.91 1751.52 2243.39 1752.52 2214.42C1753.52 2185.39 1753.52 2139.21 1752.52 2111.74C1751.52 2084.26 1750.69 2107.96 1750.69 2164.46ZM2174.57 2160.3C2175.4 2212.97 2176.9 2263.54 2177.85 2272.7C2178.79 2281.85 2179.95 2238.78 2180.45 2176.95C2180.95 2115.12 2179.45 2064.56 2177.18 2064.56C2174.9 2064.56 2173.68 2107.63 2174.57 2160.3ZM2192.17 2070.22C2192.33 2073.22 2210.37 2096.25 2232.35 2121.45C2254.27 2146.65 2274.87 2170.13 2278.14 2173.62C2281.36 2177.12 2305.23 2203.98 2331.2 2233.29C2357.12 2262.65 2381.49 2286.63 2385.32 2286.63C2389.15 2286.57 2392.25 2284.07 2392.25 2281.02C2392.25 2277.97 2389.15 2276.8 2385.32 2278.47C2381.49 2280.13 2375.88 2276.64 2372.83 2270.7C2369.78 2264.76 2344.41 2235.29 2316.49 2205.26C2288.63 2175.18 2258.77 2141.82 2250.17 2131.16C2241.56 2120.45 2224.97 2101.19 2213.26 2088.26C2201.55 2075.38 2192.05 2067.22 2192.17 2070.22ZM3506.65 2146.43C3507.54 2191.44 3509.09 2234.51 3510.15 2242.17C3511.15 2249.77 3512.09 2212.97 3512.26 2160.3C3512.42 2107.63 3510.81 2064.56 3508.76 2064.56C3506.71 2064.56 3505.76 2101.41 3506.65 2146.43ZM3534.51 2072.88C3537.84 2078.99 3558.16 2103.36 3579.69 2127C3601.23 2150.64 3618.88 2173.73 3618.88 2178.34C3618.88 2182.89 3620.99 2186.06 3623.6 2185.28C3626.21 2184.5 3637.75 2195.1 3649.3 2208.87C3660.84 2222.58 3681.27 2246.33 3694.7 2261.6C3708.07 2276.86 3720.12 2288.07 3721.34 2286.57C3722.56 2285.02 3681.04 2235.06 3629.09 2175.57C3577.09 2116.01 3533.24 2066.06 3531.57 2064.56C3529.91 2063 3531.24 2066.78 3534.51 2072.88ZM3740.99 2175.57C3740.99 2236.62 3742.87 2286.57 3745.15 2286.57C3747.43 2286.57 3749.31 2236.62 3749.31 2175.57C3749.31 2114.51 3747.43 2064.56 3745.15 2064.56C3742.87 2064.56 3740.99 2114.51 3740.99 2175.57ZM1976.92 2077.99C1976.37 2079.77 1984.08 2090.76 1994.02 2102.47C2003.95 2114.18 2038.25 2153.31 2070.34 2189.39C2102.36 2225.46 2135.66 2262.71 2144.32 2272.14L2160.03 2289.35C2143.16 2263.54 2127.23 2243.56 2113.79 2228.29C2100.36 2213.03 2082.27 2191.77 2073.55 2181.12C2064.84 2170.4 2039.7 2142.1 2017.77 2118.23C1995.79 2094.31 1977.42 2076.21 1976.92 2077.99ZM3308.84 2083.98C3313.28 2090.09 3332.43 2113.18 3351.35 2135.33C3370.28 2157.47 3383.27 2176.79 3380.22 2178.34C3377.16 2179.84 3374.55 2184.22 3374.39 2188.05C3374.22 2192.99 3376.77 2192.6 3383.16 2186.67C3391.2 2179.28 3392.7 2179.28 3397.14 2186.67C3399.86 2191.22 3420.23 2215.31 3442.49 2240.23C3464.69 2265.09 3484.12 2284.52 3485.67 2283.41C3487.17 2282.35 3470.07 2260.76 3447.65 2235.45C3425.17 2210.14 3392.7 2173.23 3375.5 2153.42C3358.24 2133.6 3334.37 2107.41 3322.44 2095.14C3310.5 2082.87 3304.4 2077.88 3308.84 2083.98ZM3763.3 2077.05C3763.24 2079.32 3798.27 2120.56 3841.12 2168.63C3884.02 2216.69 3924.59 2259.76 3931.31 2264.26C3938.25 2268.92 3934.08 2261.65 3921.82 2247.61C3909.88 2233.95 3879.91 2200.49 3855.21 2173.23C3830.57 2145.98 3799.82 2112.29 3786.89 2098.3C3774.01 2084.32 3763.36 2074.77 3763.3 2077.05ZM1765.01 2089.53C1765.07 2092.59 1781.27 2112.57 1800.92 2133.94C1820.63 2155.31 1836.67 2170.29 1836.67 2167.24C1836.67 2164.19 1820.51 2144.21 1800.81 2122.84C1781.05 2101.47 1764.96 2086.48 1765.01 2089.53ZM1843.71 2176.56C1843.33 2180.56 1864.14 2206.98 1890.06 2235.23C1915.92 2263.48 1937.07 2284.68 1936.96 2282.41C1936.9 2280.13 1916.04 2253.71 1890.62 2223.74C1865.25 2193.71 1844.1 2172.51 1843.71 2176.56ZM3165.92 2185.28C3167.8 2189.16 3157.04 2205.7 3141.55 2222.74C3121.18 2245.11 3113.8 2257.71 3113.8 2269.92V2286.57C3240.24 2286.57 3246.95 2285.57 3246.73 2276.86C3246.62 2271.53 3227.58 2247.16 3204.55 2222.74C3181.46 2198.32 3164.09 2181.45 3165.92 2185.28ZM1254.44 2525.24V2702.85L1545.83 2703.01C1555.37 2666.33 1575.97 2588.23 1597.67 2505.81C1619.43 2423.39 1637.24 2354.06 1637.3 2351.79C1637.35 2349.51 1551.21 2347.63 1445.92 2347.63H1254.44V2525.24ZM4044.48 2365.66C4046.42 2375.6 4065.68 2455.69 4087.33 2543.61L4126.74 2703.57L4462.53 2705.62V2347.63H4041.04L4044.48 2365.66ZM1254.38 3046.97V3213.48H1620.7V3013.67C1588.45 3005.51 1560.37 2998.51 1537.45 2992.8L1495.82 2982.47L1493.04 2880.46H1254.38V3046.97ZM4156.04 2937.02L4154.43 2993.57L4065.63 3021.99L4062.85 3213.48H4462.48V2880.46H4157.6L4156.04 2937.02ZM1545.83 2985.91C1551.93 2988.52 1565.03 2990.85 1574.97 2991.08C1584.9 2991.3 1593.95 2993.35 1595.06 2995.63C1596.23 2997.9 1606.83 3001.84 1618.65 3004.34C1630.53 3006.9 1672.04 3017.5 1710.95 3027.93C1750.91 3038.7 1780.5 3049.36 1778.94 3052.52C1777.28 3055.85 1750.41 3050.35 1710.95 3038.59C1675.1 3027.93 1645.12 3019.16 1644.35 3019.16C1643.57 3019.22 1642.96 3277.7 1642.96 3593.68V4168.14H1776.17C1776.17 3067.34 1776.22 3063.62 1787.27 3063.62C1793.37 3063.62 1805.25 3066.39 1813.63 3069.78C1822.01 3073.17 1846.99 3081.94 1869.14 3089.21L1909.38 3102.47V2980.36C1612.32 2980.98 1539.33 2983.14 1545.83 2985.91ZM1914.93 3574.25V4168.14H2048.13V2980.36H1914.93V3574.25ZM3661.95 3574.25L3660.51 4168.14H3793.72V2980.36H3663.39L3661.95 3574.25ZM3802.04 3035.87C3802.04 3081.49 3803.48 3091.37 3810.37 3091.37C3814.92 3091.37 3843.06 3082.99 3872.81 3072.72C3902.56 3062.51 3953.12 3046.25 3985.2 3036.65C4017.23 3027.04 4065.96 3012.45 4093.43 3004.23C4120.91 2996.07 4145.77 2987.3 4148.66 2984.86C4151.55 2982.36 4074.73 2980.36 3977.99 2980.36H3802.04V3035.87ZM3974.55 3048.24L3916.71 3065.4L3915.82 4168.14H4046.26C4046.26 3147.6 4044.81 3030.37 4039.32 3030.71C4035.49 3030.93 4006.35 3038.81 3974.55 3048.24ZM2375.6 3182.95V3318.94H2825.18V3046.97H2375.6V3182.95ZM2847.38 3182.95V3318.94H3308.06V3046.97H2847.38V3182.95ZM1254.44 3443.82V3646.41H1437.6V3241.23H1254.44V3443.82ZM1453.75 3444.32L1454.25 3646.41H1620.76L1619.76 3240.84L1453.25 3242.23L1453.75 3444.32ZM4065.85 3244.73C4063.18 3246.89 4061.46 3338.14 4061.96 3447.54L4062.91 3646.41H4251.62L4252.01 3242.17C4111.47 3241.17 4068.51 3242.62 4065.85 3244.73ZM4273.82 3443.82V3646.41H4462.53V3241.23H4273.82V3443.82ZM3228.97 3345.13L3152.65 3346.69V4140.39H3308.06C3308.06 3520.97 3307.45 3341.69 3306.67 3342.36C3305.9 3343.02 3270.93 3344.24 3228.97 3345.13ZM2375.6 3743.54V4140.39H2542.11L2541.84 3346.69H2375.6V3743.54ZM2558.76 3757.41V4168.14H3130.45V3346.69H2558.76V3757.41ZM1254.44 3921.15V4168.14H1620.76V3674.16H1254.44V3921.15ZM4065.68 3677.88C4063.13 3679.87 4061.46 3791.05 4061.96 3924.87L4062.91 4168.14H4462.53V3674.16C4158.54 3674.16 4068.24 3675.82 4065.68 3677.88ZM2414.46 4166.69C2440.38 4167.75 2481.62 4167.75 2506.04 4166.69C2530.46 4165.69 2509.2 4164.86 2458.86 4164.86C2408.46 4164.86 2388.48 4165.69 2414.46 4166.69ZM3213.71 4166.75C3245.73 4167.69 3295.68 4167.69 3324.71 4166.69C3353.68 4165.69 3327.49 4164.92 3266.43 4164.92C3205.38 4164.92 3181.62 4165.75 3213.71 4166.75Z" fill="#AA642A"/>
</svg>
