<svg width="2541" height="4210" viewBox="0 0 2541 4210" fill="none" xmlns="http://www.w3.org/2000/svg">
<path d="M1342.49 2632.92C1342.49 2716.93 1337.81 2799.31 1332.32 2815.99C1323.98 2841.01 1345.95 2846.5 1454.37 2846.5C1529.02 2846.5 1586.58 2837.55 1586.58 2826.16C1586.58 2814.97 1543.05 2803.58 1489.96 2800.73L1393.34 2795.65C1384.6 2551.36 1373.21 2480.37 1362.43 2480.37C1351.24 2480.37 1342.49 2547.29 1342.49 2632.92Z" fill="#AA642A"/>
<path d="M276.015 2729.54C260.963 2765.95 237.368 2864.4 223.333 2948.2C208.891 3035.67 203.195 3165.85 210.111 3253.31C216.62 3337.32 231.266 3433.33 242.453 3466.89C253.641 3500.45 277.032 3534.83 294.118 3543.17C314.052 3552.93 335.41 3545.41 352.496 3522.83C367.344 3503.3 398.873 3400.38 422.671 3294C463.963 3109.71 464.37 3092.83 434.672 2927.86C417.383 2832.67 390.33 2734.42 374.668 2709.2C358.802 2683.98 336.223 2663.43 324.629 2663.43C313.035 2663.43 291.067 2693.13 276.015 2729.54Z" fill="#AA642A"/>
<path d="M864.461 698.537C808.524 712.368 726.551 740.235 682.005 760.372C637.662 780.51 586.2 821.191 567.69 850.481C549.18 879.975 508.702 954.219 477.784 1015.85C428.153 1114.91 424.492 1134.64 446.46 1188.75C459.885 1222.31 480.429 1281.7 491.819 1320.96C503.414 1360.22 523.144 1403.95 535.959 1418.39C548.774 1433.04 584.573 1444.43 615.287 1443.82L671.224 1443L681.395 903.977L854.29 893.807C854.697 1327.27 861.613 1464.36 869.952 1477.79C878.089 1491.42 935.246 1512.16 996.675 1523.76C1058.1 1535.55 1124.62 1545.11 1144.14 1544.91C1176.49 1544.71 1179.74 1516.03 1179.74 1229.43C1179.74 934.488 1182.39 912.927 1220.42 893.807C1242.8 882.62 1274.94 873.466 1291.61 873.466C1308.29 873.466 1335.96 887.298 1352.64 903.977C1377.25 928.59 1383.15 996.934 1382.94 1254.85L1382.54 1575.22C1580.05 1601.26 1663.24 1615.09 1694.77 1622.61L1752.33 1636.24C1748.26 1242.04 1747.65 1107.18 1748.26 1081.96C1749.08 1041.89 1758.84 1036.8 1825.56 1041.28L1901.83 1046.36C1919.33 1550 1929.29 1634.82 1947.6 1639.7C1961.64 1643.36 1973.64 1635.02 1974.25 1620.99C1974.86 1606.95 1979.33 1554.27 1984.21 1504.03C1990.18 1443 2008.49 1398.59 2039.13 1370.8C2064.36 1348.01 2097.71 1325.03 2113.38 1319.94C2137.18 1312.21 2137.79 1284.96 2117.04 1148.07C2103.61 1058.57 2086.12 974.356 2078.59 960.728C2070.87 947.303 1950.24 889.739 1810.3 832.582C1670.36 775.628 1501.12 715.826 1434 699.961C1366.87 683.891 1234.25 671.28 1139.06 672.094C1043.87 672.908 920.397 684.705 864.461 698.537Z" fill="#AA642A"/>
<path d="M281.718 1905.75C191.406 2093.08 91.1265 2303.61 58.7848 2373.58L0 2500.71L152.555 2502.13C388.913 1990.77 471.293 1814.21 488.176 1779.84C517.466 1720.03 523.569 1717.8 640.731 1720.44C707.855 1722.07 1092.29 1766.21 1495.04 1818.28C1902.06 1870.96 2239.1 1923.85 2253.54 1937.27C2268.19 1950.7 2279.58 2000.53 2278.97 2048.13C2278.56 2095.73 2287.31 2134.58 2298.49 2134.58C2309.68 2134.58 2368.67 2072.74 2429.49 1997.28L2540.35 1859.98C2408.13 1836.18 1964.7 1769.87 1469.61 1697.05C974.521 1624.43 541.672 1565.04 507.703 1565.04C447.698 1565.04 440.579 1575.62 281.718 1905.75Z" fill="#AA642A"/>
<path fill-rule="evenodd" clip-rule="evenodd" d="M569.531 1788.79L615.297 1788.99C640.52 1789.19 992.82 1834.96 1398.41 1890.69C1804.01 1946.43 2144.92 1992.19 2156.1 1992.19C2169.32 1992.19 2176.44 2317.64 2176.44 2927.86C2176.44 3442.48 2174.21 3863.74 2171.36 3863.94C2168.51 3864.35 2129.66 3849.5 2084.91 3831.4C2040.16 3813.09 1925.85 3780.95 1830.65 3760C1735.46 3739.25 1577.61 3721.76 1479.78 3721.56C1381.94 3721.35 1237.72 3734.98 1159.41 3751.66C1081.1 3768.34 955.19 3806.99 879.726 3837.29C804.262 3867.6 664.725 3944.49 569.531 4007.95C474.336 4071.62 378.329 4143.22 355.954 4167.22C333.579 4191.02 303.882 4210.34 289.847 4209.94C274.184 4209.53 295.135 4152.17 343.749 4061.86C387.482 3980.7 463.76 3868.62 513.187 3812.68C587.024 3728.88 600.245 3702.03 588.244 3660.13C580.108 3632.06 572.582 3199.61 571.565 2699.03L569.531 1788.79ZM1236.91 2294.86C1206.6 2304.02 1154.12 2326.59 1119.95 2345.1C1085.57 2363.61 1038.59 2403.89 1015.19 2434.6C991.803 2465.32 959.461 2522.47 943.392 2561.73C927.527 2600.99 914.712 2687.84 915.322 2754.97C915.932 2832.67 931.391 2910.37 957.63 2968.54C980.615 3018.99 1019.26 3081.84 1043.67 3108.49C1068.28 3135.13 1133.98 3178.66 1189.92 3204.9C1264.37 3240.09 1327.02 3252.91 1423.84 3252.91C1520.05 3252.7 1580.67 3240.3 1646.37 3207.34C1699.25 3180.7 1758.24 3128.63 1788.75 3081.84C1828.01 3021.43 1842.65 2968.95 1847.94 2868.27C1851.81 2794.02 1842.86 2693.95 1827.8 2643.09C1812.96 2592.65 1775.33 2517.19 1744.41 2475.28C1713.49 2433.38 1649.42 2376.02 1601.82 2348.15C1548.73 2316.83 1472.05 2293.44 1403.5 2287.54C1341.87 2282.45 1267.01 2285.51 1236.91 2294.86Z" fill="#AA642A"/>
<path d="M1104.28 18.7356C1079.67 28.2958 1040.41 62.0613 1017.22 93.7927C989.56 131.22 975.118 181.461 975.728 237.805C976.135 311.031 987.933 335.033 1052.62 395.241C1108.96 447.924 1120.96 468.875 1098.38 475.79C1081.5 480.876 1045.9 487.791 1019.05 491.046C992.204 494.504 960.269 512.607 947.862 531.727C935.657 550.644 930.165 570.781 935.657 576.273C941.149 581.969 1058.11 593.766 1195.2 602.716C1358.54 613.497 1444.58 612.276 1444.99 598.851C1445.19 587.664 1429.12 563.052 1409.19 544.339C1389.25 525.625 1345.52 499.996 1311.96 487.385L1250.94 464.807C1334.74 395.241 1368.91 354.56 1381.32 329.338C1393.53 304.115 1403.49 256.111 1403.49 222.549C1403.49 188.987 1392.1 137.525 1378.07 108.235C1364.03 78.9442 1327.42 42.331 1296.7 26.8721C1265.99 11.4132 1220.22 -0.587944 1195 0.0222762C1169.78 0.835903 1129.1 9.17554 1104.28 18.7356Z" fill="#AA642A"/>
</svg>
