<svg width="2938" height="472" viewBox="0 0 2938 472" fill="none" xmlns="http://www.w3.org/2000/svg">
<path d="M232.666 367.92C232.666 389.079 227.539 407.471 217.285 423.096C207.031 438.721 192.057 450.765 172.363 459.229C152.832 467.692 129.069 471.924 101.074 471.924C88.7044 471.924 76.5788 471.11 64.6973 469.482C52.9785 467.855 41.6667 465.495 30.7617 462.402C20.0195 459.147 9.76562 455.16 0 450.439V380.127C16.9271 387.614 34.5052 394.368 52.7344 400.391C70.9635 406.413 89.0299 409.424 106.934 409.424C119.303 409.424 129.232 407.796 136.719 404.541C144.368 401.286 149.902 396.81 153.32 391.113C156.738 385.417 158.447 378.906 158.447 371.582C158.447 362.63 155.436 354.98 149.414 348.633C143.392 342.285 135.091 336.344 124.512 330.811C114.095 325.277 102.295 319.336 89.1113 312.988C80.8105 309.082 71.7773 304.362 62.0117 298.828C52.2461 293.132 42.9688 286.214 34.1797 278.076C25.3906 269.938 18.1478 260.091 12.4512 248.535C6.91732 236.816 4.15039 222.819 4.15039 206.543C4.15039 185.221 9.0332 166.992 18.7988 151.855C28.5645 136.719 42.4805 125.163 60.5469 117.188C78.776 109.049 100.26 104.98 125 104.98C143.555 104.98 161.214 107.178 177.979 111.572C194.906 115.804 212.565 121.989 230.957 130.127L206.543 188.965C190.104 182.292 175.374 177.165 162.354 173.584C149.333 169.84 136.068 167.969 122.559 167.969C113.118 167.969 105.062 169.515 98.3887 172.607C91.7155 175.537 86.6699 179.769 83.252 185.303C79.834 190.674 78.125 196.94 78.125 204.102C78.125 212.565 80.5664 219.727 85.4492 225.586C90.4948 231.283 97.9818 236.816 107.91 242.188C118.001 247.559 130.534 253.825 145.508 260.986C163.737 269.613 179.281 278.646 192.139 288.086C205.16 297.363 215.169 308.35 222.168 321.045C229.167 333.577 232.666 349.202 232.666 367.92ZM502.93 467.041H297.363V110.107H502.93V172.119H373.047V250.488H493.896V312.5H373.047V404.541H502.93V467.041ZM729.248 167.969C714.762 167.969 701.904 170.817 690.674 176.514C679.606 182.048 670.247 190.104 662.598 200.684C655.111 211.263 649.414 224.04 645.508 239.014C641.602 253.988 639.648 270.833 639.648 289.551C639.648 314.779 642.741 336.344 648.926 354.248C655.273 371.989 665.039 385.579 678.223 395.02C691.406 404.297 708.415 408.936 729.248 408.936C743.734 408.936 758.219 407.308 772.705 404.053C787.354 400.798 803.223 396.159 820.312 390.137V453.613C804.525 460.124 788.981 464.762 773.682 467.529C758.382 470.459 741.211 471.924 722.168 471.924C685.384 471.924 655.111 464.355 631.348 449.219C607.747 433.919 590.251 412.598 578.857 385.254C567.464 357.747 561.768 325.684 561.768 289.062C561.768 262.044 565.43 237.305 572.754 214.844C580.078 192.383 590.82 172.933 604.98 156.494C619.141 140.055 636.637 127.36 657.471 118.408C678.304 109.456 702.23 104.98 729.248 104.98C746.989 104.98 764.73 107.259 782.471 111.816C800.374 116.211 817.464 122.314 833.74 130.127L809.326 191.65C795.98 185.303 782.552 179.769 769.043 175.049C755.534 170.329 742.269 167.969 729.248 167.969ZM1000.49 110.107C1032.88 110.107 1059.57 114.014 1080.57 121.826C1101.73 129.639 1117.43 141.439 1127.69 157.227C1137.94 173.014 1143.07 192.952 1143.07 217.041C1143.07 233.317 1139.97 247.559 1133.79 259.766C1127.6 271.973 1119.47 282.308 1109.38 290.771C1099.28 299.235 1088.38 306.152 1076.66 311.523L1181.64 467.041H1097.66L1012.45 330.078H972.168V467.041H896.484V110.107H1000.49ZM995.117 172.119H972.168V268.555H996.582C1021.65 268.555 1039.55 264.404 1050.29 256.104C1061.2 247.64 1066.65 235.27 1066.65 218.994C1066.65 202.067 1060.79 190.023 1049.07 182.861C1037.52 175.7 1019.53 172.119 995.117 172.119ZM1432.13 467.041H1226.56V110.107H1432.13V172.119H1302.25V250.488H1423.1V312.5H1302.25V404.541H1432.13V467.041ZM1644.53 467.041H1568.85V173.096H1471.92V110.107H1741.46V173.096H1644.53V467.041ZM2014.89 467.041L1989.01 382.08H1858.89L1833.01 467.041H1751.46L1877.44 108.643H1969.97L2096.44 467.041H2014.89ZM1970.95 318.604L1945.07 235.596C1943.44 230.062 1941.24 222.982 1938.48 214.355C1935.87 205.566 1933.19 196.696 1930.42 187.744C1927.82 178.63 1925.7 170.736 1924.07 164.062C1922.44 170.736 1920.17 179.036 1917.24 188.965C1914.47 198.73 1911.78 208.008 1909.18 216.797C1906.58 225.586 1904.7 231.852 1903.56 235.596L1877.93 318.604H1970.95ZM2245.61 110.107C2277.99 110.107 2304.69 114.014 2325.68 121.826C2346.84 129.639 2362.55 141.439 2372.8 157.227C2383.06 173.014 2388.18 192.952 2388.18 217.041C2388.18 233.317 2385.09 247.559 2378.91 259.766C2372.72 271.973 2364.58 282.308 2354.49 290.771C2344.4 299.235 2333.5 306.152 2321.78 311.523L2426.76 467.041H2342.77L2257.57 330.078H2217.29V467.041H2141.6V110.107H2245.61ZM2240.23 172.119H2217.29V268.555H2241.7C2266.76 268.555 2284.67 264.404 2295.41 256.104C2306.32 247.64 2311.77 235.27 2311.77 218.994C2311.77 202.067 2305.91 190.023 2294.19 182.861C2282.63 175.7 2264.65 172.119 2240.23 172.119ZM2471.68 467.041V110.107H2547.36V467.041H2471.68ZM2614.99 0V5.12695C2610.27 9.68424 2604.09 15.2995 2596.44 21.9727C2588.79 28.6458 2580.57 35.6445 2571.78 42.9688C2562.99 50.1302 2554.36 57.0475 2545.9 63.7207C2537.43 70.2311 2530.03 75.6836 2523.68 80.0781H2474.12V73.4863C2479.49 67.3014 2485.68 59.9772 2492.68 51.5137C2499.84 42.8874 2506.92 34.0169 2513.92 24.9023C2520.91 15.7878 2526.77 7.48698 2531.49 0H2614.99ZM2855.71 467.041L2829.83 382.08H2699.71L2673.83 467.041H2592.29L2718.26 108.643H2810.79L2937.26 467.041H2855.71ZM2811.77 318.604L2785.89 235.596C2784.26 230.062 2782.06 222.982 2779.3 214.355C2776.69 205.566 2774.01 196.696 2771.24 187.744C2768.64 178.63 2766.52 170.736 2764.89 164.062C2763.26 170.736 2760.99 179.036 2758.06 188.965C2755.29 198.73 2752.6 208.008 2750 216.797C2747.4 225.586 2745.52 231.852 2744.38 235.596L2718.75 318.604H2811.77Z" fill="#AA642A"/>
</svg>
