<svg width="941" height="798" viewBox="0 0 941 798" fill="none" xmlns="http://www.w3.org/2000/svg">
<path fill-rule="evenodd" clip-rule="evenodd" d="M890.4 75.7998L897.95 76.4898C902.1 76.8798 910.45 78.4598 916.5 80.0098C922.55 81.5598 928.75 83.4298 930.28 84.1598C931.81 84.8998 933.03 85.7198 933 85.9998C932.98 86.2698 920.93 90.4698 906.23 95.3298C886.89 101.72 879.22 103.85 878.5 103.04C877.82 102.27 878.54 99.7998 880.8 95.2098C882.62 91.5198 885.52 85.6398 887.26 82.1498L890.4 75.7998ZM873.99 77.2898C878.23 77.4898 878.5 77.6798 878.7 80.4998C878.83 82.4798 876.78 87.7398 866.49 108.32L859.99 110.64C856.42 111.92 852.93 112.98 852.24 112.99C851.33 113 851.23 112.27 851.89 110.25C852.38 108.74 854.02 104.8 855.52 101.5C857.02 98.1998 859.48 92.7998 860.98 89.4998C862.47 86.1998 863.99 82.4898 864.34 81.2498C864.7 80.0098 866 78.5698 867.24 78.0398C868.48 77.5098 871.52 77.1798 873.99 77.2898ZM851.74 83.0498C852.43 83.0198 853.25 84.0098 853.56 85.2498C853.93 86.7398 852.3 91.5698 848.74 99.4998C845.79 106.1 842.83 112.74 842.18 114.25C841.11 116.72 839.24 117.56 823.74 122.5C814.25 125.52 805.93 128 805.24 128C804.49 128 805.68 124.77 808.24 119.85C810.88 114.8 815.14 108.87 819.49 104.21C823.34 100.09 829.19 94.8898 832.49 92.6698C835.79 90.4398 841.19 87.3798 844.49 85.8598C847.79 84.3398 851.05 83.0698 851.74 83.0498ZM935.92 93.5998C936.23 93.7898 934.69 96.5098 932.49 99.6398C930.29 102.76 925.23 108.85 921.24 113.16C917.25 117.47 913.43 121.01 912.74 121.02C912.05 121.04 906.2 118.56 899.74 115.52C893.28 112.49 888 109.66 888.01 109.25C888.02 108.84 898.68 105.07 911.69 100.87C924.7 96.6698 935.6 93.3998 935.92 93.5998ZM876.49 113.05C877.59 113.01 884.01 115.57 890.76 118.74C897.51 121.91 903.27 125.18 903.56 126C903.86 126.83 903.28 128.1 902.29 128.83C901.3 129.56 897.34 132 893.49 134.25C889.64 136.51 883 139.62 878.74 141.18C874.48 142.73 866.83 144.73 861.74 145.61C855.28 146.74 849.93 147.03 843.99 146.58C839.32 146.23 832.79 145.24 829.49 144.39C826.19 143.53 820.23 141.52 816.24 139.92C812.25 138.31 809.1 136.51 809.24 135.91C809.38 135.31 824.12 129.94 841.99 123.97C859.87 118.01 875.39 113.1 876.49 113.05Z" fill="#D5B35F"/>
<path fill-rule="evenodd" clip-rule="evenodd" d="M740.5 103.39C753.75 103.67 757.7 104.11 763.5 105.97C767.35 107.21 772.64 109.3 775.25 110.61C777.86 111.93 781.62 114.46 783.61 116.25C785.59 118.04 788.53 121.52 790.13 124C791.73 126.48 793.03 129.29 793.02 130.25C793 131.59 790.2 132.93 781 136C774.4 138.2 763.49 142.3 756.75 145.1C750.01 147.91 738.87 152.89 732 156.17C725.12 159.46 715.45 164.43 710.5 167.22C705.55 170.02 695.65 176.06 688.5 180.65C681.35 185.24 675.41 188.89 675.3 188.75C675.19 188.61 674.17 176.8 673.04 162.5C671.91 148.2 670.73 134.02 670.4 131C669.88 126.11 670.07 125.26 672.16 123.3C673.45 122.09 678.1 119.06 682.5 116.57C686.9 114.08 694.55 110.7 699.5 109.06C704.45 107.43 712.1 105.41 716.5 104.58C722.16 103.51 729.18 103.16 740.5 103.39ZM795 139.34C796.25 139.52 796.47 141.5 796.33 151.03C796.21 159.53 795.53 164.96 793.71 172C792.36 177.23 789.04 186.23 786.33 192C783.62 197.77 778.43 207 774.81 212.5C771.19 218 767.39 223.27 766.36 224.2C764.59 225.83 764.02 225.61 754.5 219.66C749 216.23 740.23 211.35 735 208.82C729.77 206.28 721.23 202.88 716 201.25C710.77 199.62 701.24 197.21 683.13 193.5L685.32 191.45C686.52 190.32 689.75 187.78 692.5 185.79C695.25 183.8 706.05 177.51 716.5 171.8C726.95 166.09 741.58 158.66 749 155.29C756.42 151.93 769.02 147.07 777 144.5C784.98 141.94 791.95 139.68 792.5 139.49C793.05 139.29 794.17 139.23 795 139.34ZM682.5 199.61C684.7 199.91 690.1 200.84 694.5 201.68C698.9 202.52 707 204.74 712.5 206.62C718 208.49 727.9 212.67 734.5 215.9C741.1 219.13 750.77 224.63 756 228.12C761.23 231.62 768.2 236.65 771.5 239.29C774.8 241.93 782.4 248.91 788.39 254.8C794.38 260.68 803.83 270.94 809.39 277.59C814.95 284.24 823.07 295.04 827.44 301.59C831.81 308.14 838.45 319.13 842.19 326C845.93 332.88 851.88 344.8 855.41 352.5C858.94 360.2 863.6 371.67 865.77 378C867.94 384.33 870.33 392.65 871.08 396.5C871.84 400.35 872.43 407.77 872.41 413C872.37 419.59 871.84 423.73 870.66 426.5C869.62 428.96 868.64 430.12 868.1 429.5C867.63 428.95 862.83 423.1 857.45 416.5C852.07 409.9 842.83 399.1 836.93 392.5C831.02 385.9 820.41 374.85 813.35 367.95C806.28 361.05 797.12 352.46 793 348.86C788.87 345.26 779.87 337.83 773 332.35C766.12 326.87 757.58 320.32 754 317.81C750.42 315.29 742.66 310.25 736.75 306.62C730.84 302.98 718.91 296.42 710.25 292.04C701.59 287.67 691.12 282.57 679.5 277.35L678.75 257.42C678.33 246.47 677.43 229.27 676.75 219.2C675.65 203.12 675.68 200.8 677 199.99C677.83 199.48 680.3 199.31 682.5 199.61ZM679.75 285.19L682.13 285.73C683.43 286.03 690.8 289.27 698.5 292.93C706.2 296.59 717 302.25 722.5 305.5C728 308.75 738.8 315.64 746.5 320.82C754.2 326.01 764.77 333.65 770 337.8C775.23 341.96 784.45 349.74 790.5 355.1C796.55 360.45 807.81 371.28 815.52 379.17C823.24 387.05 832.7 397.1 836.56 401.5C840.42 405.9 846.27 412.88 849.56 417C852.85 421.13 857.45 427.09 859.77 430.25C862.1 433.41 864 436.67 864 437.5C864 438.33 862.31 440.43 860.25 442.18C858.19 443.93 854.02 446.51 851 447.93C845.97 450.27 844.21 450.52 830.5 450.76C816.95 451 815.52 451.2 815.7 452.77C815.81 453.72 817.9 462.83 820.35 473C822.8 483.17 826.41 499.38 828.37 509C830.33 518.63 832.84 531.9 833.94 538.5C835.05 545.1 837.06 559.27 838.42 570C839.77 580.73 841.42 597.15 842.07 606.5C842.78 616.6 843.03 632.43 842.7 645.5C842.26 662.59 841.66 669.73 839.99 677.5C838.81 683 836.47 691.1 834.78 695.5C833.09 699.9 829.68 706.65 827.2 710.5C824.72 714.35 820.29 719.86 817.35 722.75C814.41 725.64 809.86 729.18 807.25 730.63C803.84 732.52 801.79 733.06 797.5 731.85L798.27 722.18C798.69 716.85 799.53 705.3 800.15 696.5C800.77 687.7 801.29 662.95 801.32 641.5C801.35 613.14 800.89 596.64 799.63 581C798.68 569.17 796.8 551.63 795.46 542C794.11 532.38 791.86 518.2 790.45 510.5C789.04 502.8 786.07 489.3 783.86 480.5C781.65 471.7 776.9 455.5 773.3 444.5C769.71 433.5 764.29 418.88 761.26 412C758.23 405.13 752.82 394.33 749.25 388C745.68 381.67 739.6 371.77 735.74 366C731.88 360.23 725.92 352.13 722.48 348C719.05 343.88 712.47 336.89 707.87 332.48C703.27 328.07 696.38 322.22 692.56 319.48C688.74 316.74 684.35 313.26 682.81 311.75C680.06 309.06 680 308.75 679.88 297.09L679.75 285.19ZM684.85 322.04C685.76 322.07 690.09 325.14 694.49 328.88C698.89 332.62 705.9 339.46 710.06 344.09C714.23 348.72 720.14 355.66 723.21 359.51C726.27 363.36 731.6 371.01 735.04 376.51C738.49 382.01 743.22 390.33 745.56 395.01C747.9 399.68 751.46 407.11 753.47 411.51C755.49 415.91 759.35 425.13 762.05 432.01C764.76 438.88 768.73 450.36 770.87 457.51C773.02 464.66 776.44 477.71 778.48 486.51C780.53 495.31 783.48 509.48 785.04 518.01C786.61 526.53 788.57 538.91 789.41 545.51C790.25 552.11 791.72 565.38 792.69 575.01C794.1 588.98 794.45 602.09 794.47 640.01C794.49 677.53 794.12 691.81 792.7 708.01C791.71 719.28 790.48 729.52 789.95 730.76C789.42 731.99 788.21 733.02 787.24 733.03C786.28 733.04 783.24 731.58 780.49 729.78C777.74 727.98 771.94 723.14 767.61 719.01C763.27 714.88 756.14 707.23 751.76 702.01C747.38 696.78 738.95 685.76 733.03 677.51C727.1 669.26 720.49 659.81 714.42 650.51L717.65 626.01C719.42 612.53 721.81 592.51 722.95 581.51C724.1 570.51 725.47 554.76 725.99 546.51C726.52 538.26 726.96 521.16 726.97 508.51C726.98 495.86 726.53 478.31 725.98 469.51C725.43 460.71 724.48 449.68 723.89 445.01C723.29 440.33 721.72 430.99 720.4 424.26C719.07 417.52 716.38 407.17 714.41 401.26C712.44 395.34 708.81 386.23 706.34 381.01C703.87 375.78 699.89 368.58 697.5 365.01C695.11 361.43 690.69 355.81 682.2 346.51L681.35 335.89C680.67 327.43 680.77 324.94 681.85 323.64C682.6 322.74 683.95 322.02 684.85 322.04ZM688.37 364.32C690.64 367.2 694.61 373.14 697.2 377.53C699.79 381.92 703.51 389.56 705.46 394.51C707.4 399.46 710.31 409.36 711.92 416.51C713.53 423.66 715.76 436.03 716.89 444.01C718.01 451.98 719.45 465.03 720.09 473.01C720.82 482.16 721.03 496.91 720.64 513.01C720.31 527.03 719.12 549.76 717.99 563.51C716.87 577.26 714.6 600.21 712.93 614.51C711.27 628.81 709.43 643.21 707.78 652.51L711.96 658.51C714.26 661.81 720.16 670.24 725.07 677.26C729.98 684.27 733.99 690.57 734 691.26C734 691.94 731.41 696.32 728.25 700.99C725.08 705.65 718.67 713.35 713.99 718.09C708.01 724.15 703.71 727.55 699.49 729.56C696.19 731.13 691.24 732.59 688.49 732.82C685.74 733.04 681.47 732.62 678.99 731.89C676.52 731.15 672.47 728.94 669.99 726.97C667.52 725 663.72 720.72 661.55 717.45C659.38 714.18 656.52 708.81 655.18 705.51C653.85 702.21 651.93 695.46 650.91 690.51C649.9 685.56 648.54 674.08 647.89 665.01C646.99 652.39 646.99 643.56 647.89 627.51C648.53 615.96 649.52 602.01 650.08 596.51C650.65 591.01 652.22 579.08 653.57 570.01C654.92 560.93 656.96 549.01 658.11 543.51C659.25 538.01 662.35 523.83 664.99 512.01C667.64 500.18 670.74 486.01 671.89 480.51C673.03 475.01 675.32 462.41 676.96 452.51C678.61 442.61 680.41 428.21 680.97 420.51C681.53 412.81 681.9 396.36 681.79 383.96C681.63 366.29 681.88 361.15 682.92 360.24C683.97 359.32 685.1 360.16 688.37 364.32Z" fill="#3A85AC"/>
<circle cx="905.5" cy="451.5" r="17.5" fill="#D5B35F"/>
<path d="M906 417C925.33 417 941 432.67 941 452C941 471.33 925.33 487 906 487C886.67 487 871 471.33 871 452C871 432.67 886.67 417 906 417ZM905.5 427C891.969 427 881 437.969 881 451.5C881 465.031 891.969 476 905.5 476C919.031 476 930 465.031 930 451.5C930 437.969 919.031 427 905.5 427Z" fill="#D5B35F"/>
<ellipse cx="794.5" cy="769" rx="28.5" ry="29" fill="#D5B35F"/>
<ellipse cx="685.5" cy="769" rx="28.5" ry="29" fill="#D5B35F"/>
<path d="M533.32 0.185767C534.971 -0.0441896 541.491 -0.064258 547.82 0.145728C554.15 0.345745 562.92 1.20613 567.32 2.04612C571.72 2.88614 578.47 4.6358 582.32 5.93577C586.17 7.2358 592.7 9.98616 596.82 12.0461C600.95 14.1061 607.47 17.8856 611.32 20.4455C615.17 23.0055 621.7 28.4757 625.83 32.6057C629.96 36.7256 635.89 43.9257 639.01 48.6057C642.13 53.2855 645.989 60.0356 647.6 63.6057C649.2 67.1756 651.76 73.7057 653.29 78.1057C654.81 82.5056 657.12 91.1657 658.44 97.3557C659.75 103.545 661.5 115.915 662.34 124.855C663.18 133.795 664.51 147.175 665.31 154.605C666.1 162.035 667.45 177.786 668.29 189.605C669.13 201.425 670.49 227.756 671.31 248.105C672.12 268.455 673.21 297.485 673.72 312.605C674.24 327.735 674.7 354.395 674.74 371.855C674.82 402.964 674.78 403.605 672.82 403.605C671.72 403.605 667.11 401.676 662.57 399.306C658.03 396.946 650.72 393.135 646.32 390.855C641.92 388.575 627.97 381.556 615.32 375.266C598.881 367.086 590.47 363.466 585.82 362.576C582.24 361.886 577.3 361.566 574.82 361.866C572.34 362.166 568.07 363.466 565.32 364.756C562.57 366.036 557.45 369.796 553.94 373.096C550.441 376.406 545.28 382.025 542.49 385.605C539.69 389.185 536.361 393.235 535.07 394.605C533.791 395.985 532.75 397.555 532.75 398.105C532.75 398.655 529.32 404.505 525.14 411.105C520.95 417.705 514.581 427.375 510.98 432.605C507.381 437.835 500.17 447.955 494.95 455.105C489.72 462.255 482.09 472.375 477.97 477.605C473.86 482.835 467.12 490.935 463 495.605C458.88 500.275 447.37 512.136 437.42 521.946C427.46 531.766 415.05 543.386 409.82 547.786C404.59 552.176 394.47 559.705 387.32 564.525C380.17 569.345 369.59 576.026 363.82 579.386C358.05 582.746 347.69 588.186 340.82 591.476C333.95 594.766 324.27 598.876 319.32 600.596C314.37 602.316 303.8 605.245 295.82 607.105C287.84 608.965 275.02 611.406 267.32 612.536C257.92 613.916 248.23 614.586 237.82 614.586C229.3 614.586 216.92 613.956 210.32 613.186C203.721 612.406 196.521 611.466 194.32 611.086C192.12 610.706 185.82 609.306 180.32 607.966C174.82 606.616 165.37 603.886 159.32 601.876C153.27 599.876 141.35 594.766 132.82 590.516C124.291 586.276 112.82 579.776 107.32 576.076C101.82 572.386 93.5005 566.086 88.8205 562.096C84.1405 558.096 76.2402 550.616 71.2502 545.466C66.2702 540.316 59.6898 532.955 56.6398 529.105C53.5899 525.255 49.4601 519.745 47.4602 516.855C45.4601 513.965 41.9503 508.565 39.6604 504.855C37.3803 501.145 33.3604 493.835 30.7404 488.605C28.1204 483.375 23.9506 474.155 21.4807 468.105C19.0107 462.055 14.9206 450.465 12.4006 442.355C9.88058 434.245 6.72005 421.645 5.38006 414.355C4.04007 407.066 2.44025 397.275 1.83026 392.605C1.22026 387.935 0.459818 375.335 0.139824 364.605C-0.170162 353.775 0.0505723 339.105 0.650567 331.605C1.24058 324.175 2.43976 313.155 3.30975 307.105C4.18977 301.055 6.20977 290.705 7.80975 284.105C9.40976 277.505 12.2799 267.375 14.1799 261.605C16.0899 255.835 19.29 247.055 21.3 242.105C23.31 237.155 27.6502 227.925 30.9602 221.605C34.2602 215.285 40.2498 205.155 44.2697 199.105C48.2897 193.055 54.6504 184.285 58.4104 179.605C62.1704 174.925 69.5406 166.795 74.7805 161.525C80.0305 156.255 87.4706 149.465 91.3205 146.436C95.1706 143.395 102.82 137.896 108.32 134.206C113.82 130.516 125.07 124.165 133.32 120.105C141.57 116.036 152.82 111.176 158.32 109.296C163.82 107.416 173.27 104.696 179.32 103.256C185.37 101.816 194.82 99.9256 200.32 99.0656C205.821 98.2056 218.641 97.2362 228.82 96.9162C239.73 96.5762 252.65 96.7958 260.32 97.4758C267.47 98.1058 279.84 99.7565 287.82 101.156C295.8 102.546 307.27 104.996 313.32 106.596C319.37 108.206 332.42 112.286 342.32 115.666C352.22 119.056 364.82 123.856 370.32 126.326C375.82 128.806 386.06 133.706 393.07 137.216C401.68 141.536 405.95 143.195 406.23 142.355C406.451 141.664 407.15 137.054 407.78 132.105C408.42 127.155 409.85 119.505 410.97 115.105C412.09 110.705 414.71 102.605 416.79 97.1057C418.87 91.6057 422.34 83.2856 424.5 78.6057C426.67 73.9256 430.97 66.2856 434.05 61.6057C437.13 56.9257 442.59 49.7356 446.18 45.6057C449.76 41.4858 455.31 35.8061 458.51 33.0061C461.71 30.1961 467.92 25.3057 472.32 22.1457C476.72 18.9757 483.81 14.6362 488.07 12.4963C492.33 10.3563 500.21 7.30603 505.57 5.71604C510.93 4.13606 518.69 2.32603 522.82 1.71604C526.94 1.10605 531.67 0.415761 533.32 0.185767ZM543.32 52.6057C508.25 52.6057 479.82 81.0356 479.82 116.105C479.82 151.176 508.25 179.605 543.32 179.605C578.39 179.605 606.82 151.175 606.82 116.105C606.82 81.0357 578.39 52.6059 543.32 52.6057Z" fill="#AA642A"/>
</svg>
