<svg width="4912" height="472" viewBox="0 0 4912 472" fill="none" xmlns="http://www.w3.org/2000/svg">
<path d="M167.48 167.969C152.995 167.969 140.137 170.817 128.906 176.514C117.839 182.048 108.48 190.104 100.83 200.684C93.3431 211.263 87.6465 224.04 83.7402 239.014C79.834 253.988 77.8809 270.833 77.8809 289.551C77.8809 314.779 80.9733 336.344 87.1582 354.248C93.5059 371.989 103.271 385.579 116.455 395.02C129.639 404.297 146.647 408.936 167.48 408.936C181.966 408.936 196.452 407.308 210.938 404.053C225.586 400.798 241.455 396.159 258.545 390.137V453.613C242.757 460.124 227.214 464.762 211.914 467.529C196.615 470.459 179.443 471.924 160.4 471.924C123.617 471.924 93.3431 464.355 69.5801 449.219C45.9798 433.919 28.4831 412.598 17.0898 385.254C5.69661 357.747 0 325.684 0 289.062C0 262.044 3.66211 237.305 10.9863 214.844C18.3105 192.383 29.0527 172.933 43.2129 156.494C57.373 140.055 74.8698 127.36 95.7031 118.408C116.536 109.456 140.462 104.98 167.48 104.98C185.221 104.98 202.962 107.259 220.703 111.816C238.607 116.211 255.697 122.314 271.973 130.127L247.559 191.65C234.212 185.303 220.785 179.769 207.275 175.049C193.766 170.329 180.501 167.969 167.48 167.969ZM658.691 288.086C658.691 315.592 655.273 340.658 648.438 363.281C641.602 385.742 631.185 405.111 617.188 421.387C603.353 437.663 585.775 450.195 564.453 458.984C543.132 467.611 517.904 471.924 488.77 471.924C459.635 471.924 434.408 467.611 413.086 458.984C391.764 450.195 374.105 437.663 360.107 421.387C346.273 405.111 335.938 385.661 329.102 363.037C322.266 340.413 318.848 315.267 318.848 287.598C318.848 250.651 324.87 218.506 336.914 191.162C349.121 163.656 367.839 142.334 393.066 127.197C418.294 112.061 450.358 104.492 489.258 104.492C527.995 104.492 559.814 112.061 584.717 127.197C609.782 142.334 628.337 163.656 640.381 191.162C652.588 218.669 658.691 250.977 658.691 288.086ZM398.193 288.086C398.193 312.988 401.286 334.473 407.471 352.539C413.818 370.443 423.665 384.277 437.012 394.043C450.358 403.646 467.611 408.447 488.77 408.447C510.254 408.447 527.669 403.646 541.016 394.043C554.362 384.277 564.046 370.443 570.068 352.539C576.253 334.473 579.346 312.988 579.346 288.086C579.346 250.651 572.347 221.191 558.35 199.707C544.352 178.223 521.322 167.48 489.258 167.48C467.936 167.48 450.521 172.363 437.012 182.129C423.665 191.732 413.818 205.566 407.471 223.633C401.286 241.536 398.193 263.021 398.193 288.086ZM883.789 467.041L797.852 187.012H795.654C795.98 193.685 796.468 203.776 797.119 217.285C797.933 230.632 798.665 244.873 799.316 260.01C799.967 275.146 800.293 288.818 800.293 301.025V467.041H732.666V110.107H835.693L920.166 383.057H921.631L1011.23 110.107H1114.26V467.041H1043.7V298.096C1043.7 286.865 1043.86 273.926 1044.19 259.277C1044.68 244.629 1045.25 230.713 1045.9 217.529C1046.55 204.183 1047.04 194.173 1047.36 187.5H1045.17L953.125 467.041H883.789ZM1204.35 467.041V110.107H1280.03V467.041H1204.35ZM1580.57 367.92C1580.57 389.079 1575.44 407.471 1565.19 423.096C1554.93 438.721 1539.96 450.765 1520.26 459.229C1500.73 467.692 1476.97 471.924 1448.97 471.924C1436.6 471.924 1424.48 471.11 1412.6 469.482C1400.88 467.855 1389.57 465.495 1378.66 462.402C1367.92 459.147 1357.67 455.16 1347.9 450.439V380.127C1364.83 387.614 1382.41 394.368 1400.63 400.391C1418.86 406.413 1436.93 409.424 1454.83 409.424C1467.2 409.424 1477.13 407.796 1484.62 404.541C1492.27 401.286 1497.8 396.81 1501.22 391.113C1504.64 385.417 1506.35 378.906 1506.35 371.582C1506.35 362.63 1503.34 354.98 1497.31 348.633C1491.29 342.285 1482.99 336.344 1472.41 330.811C1462 325.277 1450.2 319.336 1437.01 312.988C1428.71 309.082 1419.68 304.362 1409.91 298.828C1400.15 293.132 1390.87 286.214 1382.08 278.076C1373.29 269.938 1366.05 260.091 1360.35 248.535C1354.82 236.816 1352.05 222.819 1352.05 206.543C1352.05 185.221 1356.93 166.992 1366.7 151.855C1376.46 136.719 1390.38 125.163 1408.45 117.188C1426.68 109.049 1448.16 104.98 1472.9 104.98C1491.46 104.98 1509.11 107.178 1525.88 111.572C1542.81 115.804 1560.47 121.989 1578.86 130.127L1554.44 188.965C1538 182.292 1523.27 177.165 1510.25 173.584C1497.23 169.84 1483.97 167.969 1470.46 167.969C1461.02 167.969 1452.96 169.515 1446.29 172.607C1439.62 175.537 1434.57 179.769 1431.15 185.303C1427.73 190.674 1426.03 196.94 1426.03 204.102C1426.03 212.565 1428.47 219.727 1433.35 225.586C1438.4 231.283 1445.88 236.816 1455.81 242.188C1465.9 247.559 1478.43 253.825 1493.41 260.986C1511.64 269.613 1527.18 278.646 1540.04 288.086C1553.06 297.363 1563.07 308.35 1570.07 321.045C1577.07 333.577 1580.57 349.202 1580.57 367.92ZM1645.26 467.041V110.107H1720.95V467.041H1645.26ZM2134.77 288.086C2134.77 315.592 2131.35 340.658 2124.51 363.281C2117.68 385.742 2107.26 405.111 2093.26 421.387C2079.43 437.663 2061.85 450.195 2040.53 458.984C2019.21 467.611 1993.98 471.924 1964.84 471.924C1935.71 471.924 1910.48 467.611 1889.16 458.984C1867.84 450.195 1850.18 437.663 1836.18 421.387C1822.35 405.111 1812.01 385.661 1805.18 363.037C1798.34 340.413 1794.92 315.267 1794.92 287.598C1794.92 250.651 1800.94 218.506 1812.99 191.162C1825.2 163.656 1843.91 142.334 1869.14 127.197C1894.37 112.061 1926.43 104.492 1965.33 104.492C2004.07 104.492 2035.89 112.061 2060.79 127.197C2085.86 142.334 2104.41 163.656 2116.46 191.162C2128.66 218.669 2134.77 250.977 2134.77 288.086ZM1874.27 288.086C1874.27 312.988 1877.36 334.473 1883.54 352.539C1889.89 370.443 1899.74 384.277 1913.09 394.043C1926.43 403.646 1943.68 408.447 1964.84 408.447C1986.33 408.447 2003.74 403.646 2017.09 394.043C2030.44 384.277 2040.12 370.443 2046.14 352.539C2052.33 334.473 2055.42 312.988 2055.42 288.086C2055.42 250.651 2048.42 221.191 2034.42 199.707C2020.43 178.223 1997.4 167.48 1965.33 167.48C1944.01 167.48 1926.6 172.363 1913.09 182.129C1899.74 191.732 1889.89 205.566 1883.54 223.633C1877.36 241.536 1874.27 263.021 1874.27 288.086ZM2060.79 0V5.12695C2056.07 9.68424 2049.89 15.2995 2042.24 21.9727C2034.59 28.6458 2026.37 35.6445 2017.58 42.9688C2008.79 50.1302 2000.16 57.0475 1991.7 63.7207C1983.24 70.2311 1975.83 75.6836 1969.48 80.0781H1919.92V73.4863C1925.29 67.3014 1931.48 59.9772 1938.48 51.5137C1945.64 42.8874 1952.72 34.0169 1959.72 24.9023C1966.72 15.7878 1972.57 7.48698 1977.29 0H2060.79ZM2525.39 467.041H2429.2L2273.93 197.021H2271.73C2272.38 208.252 2272.95 219.564 2273.44 230.957C2273.93 242.35 2274.41 253.743 2274.9 265.137C2275.39 276.367 2275.88 287.679 2276.37 299.072V467.041H2208.74V110.107H2304.2L2459.23 377.441H2460.94C2460.61 366.374 2460.21 355.387 2459.72 344.482C2459.23 333.577 2458.74 322.673 2458.25 311.768C2457.93 300.863 2457.6 289.958 2457.28 279.053V110.107H2525.39V467.041ZM3041.5 285.156C3041.5 325.358 3033.77 358.968 3018.31 385.986C3003.01 412.842 2980.79 433.105 2951.66 446.777C2922.53 460.286 2887.45 467.041 2846.44 467.041H2745.36V110.107H2857.42C2894.86 110.107 2927.33 116.781 2954.83 130.127C2982.34 143.311 3003.66 162.923 3018.8 188.965C3033.94 214.844 3041.5 246.908 3041.5 285.156ZM2962.89 287.109C2962.89 260.742 2958.98 239.095 2951.17 222.168C2943.52 205.078 2932.13 192.464 2916.99 184.326C2902.02 176.188 2883.46 172.119 2861.33 172.119H2821.04V404.541H2853.52C2890.46 404.541 2917.89 394.694 2935.79 375C2953.86 355.306 2962.89 326.009 2962.89 287.109ZM3321.04 467.041H3115.48V110.107H3321.04V172.119H3191.16V250.488H3312.01V312.5H3191.16V404.541H3321.04V467.041ZM3744.14 467.041L3718.26 382.08H3588.13L3562.26 467.041H3480.71L3606.69 108.643H3699.22L3825.68 467.041H3744.14ZM3700.2 318.604L3674.32 235.596C3672.69 230.062 3670.49 222.982 3667.72 214.355C3665.12 205.566 3662.43 196.696 3659.67 187.744C3657.06 178.63 3654.95 170.736 3653.32 164.062C3651.69 170.736 3649.41 179.036 3646.48 188.965C3643.72 198.73 3641.03 208.008 3638.43 216.797C3635.82 225.586 3633.95 231.852 3632.81 235.596L3607.18 318.604H3700.2ZM4006.35 266.602H4147.95V451.66C4129.23 457.845 4109.78 462.809 4089.6 466.553C4069.42 470.133 4046.55 471.924 4021 471.924C3985.51 471.924 3955.4 464.925 3930.66 450.928C3905.92 436.93 3887.13 416.26 3874.27 388.916C3861.41 361.572 3854.98 327.962 3854.98 288.086C3854.98 250.651 3862.14 218.262 3876.46 190.918C3890.95 163.574 3912.03 142.415 3939.7 127.441C3967.53 112.467 4001.46 104.98 4041.5 104.98C4060.38 104.98 4079.02 107.015 4097.41 111.084C4115.8 115.153 4132.49 120.443 4147.46 126.953L4122.31 187.5C4111.41 181.966 4098.96 177.327 4084.96 173.584C4070.96 169.84 4056.32 167.969 4041.02 167.969C4019.04 167.969 3999.92 173.014 3983.64 183.105C3967.53 193.197 3955 207.357 3946.04 225.586C3937.26 243.652 3932.86 264.974 3932.86 289.551C3932.86 312.826 3936.04 333.496 3942.38 351.562C3948.73 369.466 3958.74 383.545 3972.41 393.799C3986.08 403.89 4003.91 408.936 4025.88 408.936C4036.62 408.936 4045.65 408.447 4052.98 407.471C4060.47 406.331 4067.46 405.192 4073.97 404.053V329.59H4006.35V266.602ZM4523.68 110.107V341.064C4523.68 365.641 4518.23 387.858 4507.32 407.715C4496.58 427.409 4480.22 443.034 4458.25 454.59C4436.44 466.146 4408.94 471.924 4375.73 471.924C4328.53 471.924 4292.56 459.88 4267.82 435.791C4243.08 411.702 4230.71 379.801 4230.71 340.088V110.107H4306.15V328.613C4306.15 358.073 4312.17 378.743 4324.22 390.625C4336.26 402.507 4354.09 408.447 4377.69 408.447C4394.29 408.447 4407.71 405.599 4417.97 399.902C4428.39 394.206 4436.04 385.417 4440.92 373.535C4445.8 361.654 4448.24 346.517 4448.24 328.125V110.107H4523.68ZM4829.59 467.041L4803.71 382.08H4673.58L4647.71 467.041H4566.16L4692.14 108.643H4784.67L4911.13 467.041H4829.59ZM4785.64 318.604L4759.77 235.596C4758.14 230.062 4755.94 222.982 4753.17 214.355C4750.57 205.566 4747.88 196.696 4745.12 187.744C4742.51 178.63 4740.4 170.736 4738.77 164.062C4737.14 170.736 4734.86 179.036 4731.93 188.965C4729.17 198.73 4726.48 208.008 4723.88 216.797C4721.27 225.586 4719.4 231.852 4718.26 235.596L4692.63 318.604H4785.64Z" fill="#AA642A"/>
</svg>
