<svg width="4182" height="472" viewBox="0 0 4182 472" fill="none" xmlns="http://www.w3.org/2000/svg">
<path d="M339.844 288.086C339.844 315.592 336.426 340.658 329.59 363.281C322.754 385.742 312.337 405.111 298.34 421.387C284.505 437.663 266.927 450.195 245.605 458.984C224.284 467.611 199.056 471.924 169.922 471.924C140.788 471.924 115.56 467.611 94.2383 458.984C72.9167 450.195 55.2572 437.663 41.2598 421.387C27.4251 405.111 17.0898 385.661 10.2539 363.037C3.41797 340.413 0 315.267 0 287.598C0 250.651 6.02214 218.506 18.0664 191.162C30.2734 163.656 48.9909 142.334 74.2188 127.197C99.4466 112.061 131.51 104.492 170.41 104.492C209.147 104.492 240.967 112.061 265.869 127.197C290.934 142.334 309.489 163.656 321.533 191.162C333.74 218.669 339.844 250.977 339.844 288.086ZM79.3457 288.086C79.3457 312.988 82.4382 334.473 88.623 352.539C94.9707 370.443 104.818 384.277 118.164 394.043C131.51 403.646 148.763 408.447 169.922 408.447C191.406 408.447 208.822 403.646 222.168 394.043C235.514 384.277 245.199 370.443 251.221 352.539C257.406 334.473 260.498 312.988 260.498 288.086C260.498 250.651 253.499 221.191 239.502 199.707C225.505 178.223 202.474 167.48 170.41 167.48C149.089 167.48 131.673 172.363 118.164 182.129C104.818 191.732 94.9707 205.566 88.623 223.633C82.4382 241.536 79.3457 263.021 79.3457 288.086ZM413.818 110.107H524.902C572.428 110.107 608.398 116.781 632.812 130.127C657.227 143.473 669.434 166.911 669.434 200.439C669.434 213.949 667.236 226.156 662.842 237.061C658.61 247.965 652.425 256.917 644.287 263.916C636.149 270.915 626.221 275.472 614.502 277.588V280.029C626.383 282.471 637.126 286.702 646.729 292.725C656.331 298.584 663.981 307.21 669.678 318.604C675.537 329.834 678.467 344.808 678.467 363.525C678.467 385.173 673.177 403.727 662.598 419.189C652.018 434.652 636.882 446.533 617.188 454.834C597.656 462.972 574.382 467.041 547.363 467.041H413.818V110.107ZM489.502 251.465H533.447C555.42 251.465 570.638 248.047 579.102 241.211C587.565 234.212 591.797 223.958 591.797 210.449C591.797 196.777 586.751 187.012 576.66 181.152C566.732 175.13 550.944 172.119 529.297 172.119H489.502V251.465ZM489.502 311.523V404.541H538.818C561.605 404.541 577.474 400.146 586.426 391.357C595.378 382.568 599.854 370.768 599.854 355.957C599.854 347.168 597.9 339.437 593.994 332.764C590.088 326.09 583.496 320.882 574.219 317.139C565.104 313.395 552.49 311.523 536.377 311.523H489.502ZM853.76 110.107C886.149 110.107 912.842 114.014 933.838 121.826C954.997 129.639 970.703 141.439 980.957 157.227C991.211 173.014 996.338 192.952 996.338 217.041C996.338 233.317 993.245 247.559 987.061 259.766C980.876 271.973 972.738 282.308 962.646 290.771C952.555 299.235 941.65 306.152 929.932 311.523L1034.91 467.041H950.928L865.723 330.078H825.439V467.041H749.756V110.107H853.76ZM848.389 172.119H825.439V268.555H849.854C874.919 268.555 892.822 264.404 903.564 256.104C914.469 247.64 919.922 235.27 919.922 218.994C919.922 202.067 914.062 190.023 902.344 182.861C890.788 175.7 872.803 172.119 848.389 172.119ZM1298.34 467.041L1272.46 382.08H1142.33L1116.46 467.041H1034.91L1160.89 108.643H1253.42L1379.88 467.041H1298.34ZM1254.39 318.604L1228.52 235.596C1226.89 230.062 1224.69 222.982 1221.92 214.355C1219.32 205.566 1216.63 196.696 1213.87 187.744C1211.26 178.63 1209.15 170.736 1207.52 164.062C1205.89 170.736 1203.61 179.036 1200.68 188.965C1197.92 198.73 1195.23 208.008 1192.63 216.797C1190.02 225.586 1188.15 231.852 1187.01 235.596L1161.38 318.604H1254.39ZM1635.74 367.92C1635.74 389.079 1630.62 407.471 1620.36 423.096C1610.11 438.721 1595.13 450.765 1575.44 459.229C1555.91 467.692 1532.15 471.924 1504.15 471.924C1491.78 471.924 1479.65 471.11 1467.77 469.482C1456.05 467.855 1444.74 465.495 1433.84 462.402C1423.1 459.147 1412.84 455.16 1403.08 450.439V380.127C1420 387.614 1437.58 394.368 1455.81 400.391C1474.04 406.413 1492.11 409.424 1510.01 409.424C1522.38 409.424 1532.31 407.796 1539.79 404.541C1547.44 401.286 1552.98 396.81 1556.4 391.113C1559.81 385.417 1561.52 378.906 1561.52 371.582C1561.52 362.63 1558.51 354.98 1552.49 348.633C1546.47 342.285 1538.17 336.344 1527.59 330.811C1517.17 325.277 1505.37 319.336 1492.19 312.988C1483.89 309.082 1474.85 304.362 1465.09 298.828C1455.32 293.132 1446.04 286.214 1437.26 278.076C1428.47 269.938 1421.22 260.091 1415.53 248.535C1409.99 236.816 1407.23 222.819 1407.23 206.543C1407.23 185.221 1412.11 166.992 1421.88 151.855C1431.64 136.719 1445.56 125.163 1463.62 117.188C1481.85 109.049 1503.34 104.98 1528.08 104.98C1546.63 104.98 1564.29 107.178 1581.05 111.572C1597.98 115.804 1615.64 121.989 1634.03 130.127L1609.62 188.965C1593.18 182.292 1578.45 177.165 1565.43 173.584C1552.41 169.84 1539.14 167.969 1525.63 167.969C1516.19 167.969 1508.14 169.515 1501.46 172.607C1494.79 175.537 1489.75 179.769 1486.33 185.303C1482.91 190.674 1481.2 196.94 1481.2 204.102C1481.2 212.565 1483.64 219.727 1488.53 225.586C1493.57 231.283 1501.06 236.816 1510.99 242.188C1521.08 247.559 1533.61 253.825 1548.58 260.986C1566.81 269.613 1582.36 278.646 1595.21 288.086C1608.24 297.363 1618.25 308.35 1625.24 321.045C1632.24 333.577 1635.74 349.202 1635.74 367.92ZM1944.34 110.107C1990.4 110.107 2024.01 120.036 2045.17 139.893C2066.32 159.587 2076.9 186.768 2076.9 221.436C2076.9 237.061 2074.54 252.035 2069.82 266.357C2065.1 280.518 2057.37 293.132 2046.63 304.199C2036.05 315.267 2021.89 324.056 2004.15 330.566C1986.41 336.914 1964.52 340.088 1938.48 340.088H1906.01V467.041H1830.32V110.107H1944.34ZM1940.43 172.119H1906.01V278.076H1930.91C1945.07 278.076 1957.36 276.204 1967.77 272.461C1978.19 268.717 1986.25 262.858 1991.94 254.883C1997.64 246.908 2000.49 236.654 2000.49 224.121C2000.49 206.543 1995.61 193.522 1985.84 185.059C1976.07 176.432 1960.94 172.119 1940.43 172.119ZM2434.81 110.107V341.064C2434.81 365.641 2429.36 387.858 2418.46 407.715C2407.71 427.409 2391.36 443.034 2369.38 454.59C2347.57 466.146 2320.07 471.924 2286.87 471.924C2239.66 471.924 2203.69 459.88 2178.96 435.791C2154.22 411.702 2141.85 379.801 2141.85 340.088V110.107H2217.29V328.613C2217.29 358.073 2223.31 378.743 2235.35 390.625C2247.4 402.507 2265.22 408.447 2288.82 408.447C2305.42 408.447 2318.85 405.599 2329.1 399.902C2339.52 394.206 2347.17 385.417 2352.05 373.535C2356.93 361.654 2359.38 346.517 2359.38 328.125V110.107H2434.81ZM2384.28 0V5.12695C2379.56 9.68424 2373.37 15.2995 2365.72 21.9727C2358.07 28.6458 2349.85 35.6445 2341.06 42.9688C2332.28 50.1302 2323.65 57.0475 2315.19 63.7207C2306.72 70.2311 2299.32 75.6836 2292.97 80.0781H2243.41V73.4863C2248.78 67.3014 2254.96 59.9772 2261.96 51.5137C2269.12 42.8874 2276.2 34.0169 2283.2 24.9023C2290.2 15.7878 2296.06 7.48698 2300.78 0H2384.28ZM2522.22 110.107H2633.3C2680.83 110.107 2716.8 116.781 2741.21 130.127C2765.62 143.473 2777.83 166.911 2777.83 200.439C2777.83 213.949 2775.63 226.156 2771.24 237.061C2767.01 247.965 2760.82 256.917 2752.69 263.916C2744.55 270.915 2734.62 275.472 2722.9 277.588V280.029C2734.78 282.471 2745.52 286.702 2755.13 292.725C2764.73 298.584 2772.38 307.21 2778.08 318.604C2783.94 329.834 2786.87 344.808 2786.87 363.525C2786.87 385.173 2781.58 403.727 2771 419.189C2760.42 434.652 2745.28 446.533 2725.59 454.834C2706.05 462.972 2682.78 467.041 2655.76 467.041H2522.22V110.107ZM2597.9 251.465H2641.85C2663.82 251.465 2679.04 248.047 2687.5 241.211C2695.96 234.212 2700.2 223.958 2700.2 210.449C2700.2 196.777 2695.15 187.012 2685.06 181.152C2675.13 175.13 2659.34 172.119 2637.7 172.119H2597.9V251.465ZM2597.9 311.523V404.541H2647.22C2670 404.541 2685.87 400.146 2694.82 391.357C2703.78 382.568 2708.25 370.768 2708.25 355.957C2708.25 347.168 2706.3 339.437 2702.39 332.764C2698.49 326.09 2691.89 320.882 2682.62 317.139C2673.5 313.395 2660.89 311.523 2644.78 311.523H2597.9ZM2858.15 467.041V110.107H2933.84V404.541H3078.61V467.041H2858.15ZM3140.87 467.041V110.107H3216.55V467.041H3140.87ZM3458.01 167.969C3443.52 167.969 3430.66 170.817 3419.43 176.514C3408.37 182.048 3399.01 190.104 3391.36 200.684C3383.87 211.263 3378.17 224.04 3374.27 239.014C3370.36 253.988 3368.41 270.833 3368.41 289.551C3368.41 314.779 3371.5 336.344 3377.69 354.248C3384.03 371.989 3393.8 385.579 3406.98 395.02C3420.17 404.297 3437.17 408.936 3458.01 408.936C3472.49 408.936 3486.98 407.308 3501.46 404.053C3516.11 400.798 3531.98 396.159 3549.07 390.137V453.613C3533.28 460.124 3517.74 464.762 3502.44 467.529C3487.14 470.459 3469.97 471.924 3450.93 471.924C3414.14 471.924 3383.87 464.355 3360.11 449.219C3336.51 433.919 3319.01 412.598 3307.62 385.254C3296.22 357.747 3290.53 325.684 3290.53 289.062C3290.53 262.044 3294.19 237.305 3301.51 214.844C3308.84 192.383 3319.58 172.933 3333.74 156.494C3347.9 140.055 3365.4 127.36 3386.23 118.408C3407.06 109.456 3430.99 104.98 3458.01 104.98C3475.75 104.98 3493.49 107.259 3511.23 111.816C3529.13 116.211 3546.22 122.314 3562.5 130.127L3538.09 191.65C3524.74 185.303 3511.31 179.769 3497.8 175.049C3484.29 170.329 3471.03 167.969 3458.01 167.969ZM3843.75 467.041L3817.87 382.08H3687.74L3661.87 467.041H3580.32L3706.3 108.643H3798.83L3925.29 467.041H3843.75ZM3799.8 318.604L3773.93 235.596C3772.3 230.062 3770.1 222.982 3767.33 214.355C3764.73 205.566 3762.04 196.696 3759.28 187.744C3756.67 178.63 3754.56 170.736 3752.93 164.062C3751.3 170.736 3749.02 179.036 3746.09 188.965C3743.33 198.73 3740.64 208.008 3738.04 216.797C3735.43 225.586 3733.56 231.852 3732.42 235.596L3706.79 318.604H3799.8ZM4181.15 367.92C4181.15 389.079 4176.03 407.471 4165.77 423.096C4155.52 438.721 4140.54 450.765 4120.85 459.229C4101.32 467.692 4077.56 471.924 4049.56 471.924C4037.19 471.924 4025.07 471.11 4013.18 469.482C4001.46 467.855 3990.15 465.495 3979.25 462.402C3968.51 459.147 3958.25 455.16 3948.49 450.439V380.127C3965.41 387.614 3982.99 394.368 4001.22 400.391C4019.45 406.413 4037.52 409.424 4055.42 409.424C4067.79 409.424 4077.72 407.796 4085.21 404.541C4092.85 401.286 4098.39 396.81 4101.81 391.113C4105.22 385.417 4106.93 378.906 4106.93 371.582C4106.93 362.63 4103.92 354.98 4097.9 348.633C4091.88 342.285 4083.58 336.344 4073 330.811C4062.58 325.277 4050.78 319.336 4037.6 312.988C4029.3 309.082 4020.26 304.362 4010.5 298.828C4000.73 293.132 3991.46 286.214 3982.67 278.076C3973.88 269.938 3966.63 260.091 3960.94 248.535C3955.4 236.816 3952.64 222.819 3952.64 206.543C3952.64 185.221 3957.52 166.992 3967.29 151.855C3977.05 136.719 3990.97 125.163 4009.03 117.188C4027.26 109.049 4048.75 104.98 4073.49 104.98C4092.04 104.98 4109.7 107.178 4126.46 111.572C4143.39 115.804 4161.05 121.989 4179.44 130.127L4155.03 188.965C4138.59 182.292 4123.86 177.165 4110.84 173.584C4097.82 169.84 4084.55 167.969 4071.04 167.969C4061.6 167.969 4053.55 169.515 4046.88 172.607C4040.2 175.537 4035.16 179.769 4031.74 185.303C4028.32 190.674 4026.61 196.94 4026.61 204.102C4026.61 212.565 4029.05 219.727 4033.94 225.586C4038.98 231.283 4046.47 236.816 4056.4 242.188C4066.49 247.559 4079.02 253.825 4093.99 260.986C4112.22 269.613 4127.77 278.646 4140.62 288.086C4153.65 297.363 4163.66 308.35 4170.65 321.045C4177.65 333.577 4181.15 349.202 4181.15 367.92Z" fill="#AA642A"/>
</svg>
