<svg width="2918" height="367" viewBox="0 0 2918 367" fill="none" xmlns="http://www.w3.org/2000/svg">
<path d="M114.014 5.12695C160.075 5.12695 193.685 15.0553 214.844 34.9121C236.003 54.6061 246.582 81.7871 246.582 116.455C246.582 132.08 244.222 147.054 239.502 161.377C234.782 175.537 227.051 188.151 216.309 199.219C205.729 210.286 191.569 219.076 173.828 225.586C156.087 231.934 134.196 235.107 108.154 235.107H75.6836V362.061H0V5.12695H114.014ZM110.107 67.1387H75.6836V173.096H100.586C114.746 173.096 127.035 171.224 137.451 167.48C147.868 163.737 155.924 157.878 161.621 149.902C167.318 141.927 170.166 131.673 170.166 119.141C170.166 101.562 165.283 88.5417 155.518 80.0781C145.752 71.4518 130.615 67.1387 110.107 67.1387ZM417.969 5.12695C450.358 5.12695 477.051 9.0332 498.047 16.8457C519.206 24.6582 534.912 36.4583 545.166 52.2461C555.42 68.0339 560.547 87.972 560.547 112.061C560.547 128.337 557.454 142.578 551.27 154.785C545.085 166.992 536.947 177.327 526.855 185.791C516.764 194.255 505.859 201.172 494.141 206.543L599.121 362.061H515.137L429.932 225.098H389.648V362.061H313.965V5.12695H417.969ZM412.598 67.1387H389.648V163.574H414.062C439.128 163.574 457.031 159.424 467.773 151.123C478.678 142.66 484.131 130.29 484.131 114.014C484.131 97.0866 478.271 85.0423 466.553 77.8809C454.997 70.7194 437.012 67.1387 412.598 67.1387ZM849.609 362.061H644.043V5.12695H849.609V67.1387H719.727V145.508H840.576V207.52H719.727V299.561H849.609V362.061ZM1135.01 262.939C1135.01 284.098 1129.88 302.49 1119.63 318.115C1109.38 333.74 1094.4 345.785 1074.71 354.248C1055.18 362.712 1031.41 366.943 1003.42 366.943C991.048 366.943 978.923 366.13 967.041 364.502C955.322 362.874 944.01 360.514 933.105 357.422C922.363 354.167 912.109 350.179 902.344 345.459V275.146C919.271 282.633 936.849 289.388 955.078 295.41C973.307 301.432 991.374 304.443 1009.28 304.443C1021.65 304.443 1031.58 302.816 1039.06 299.561C1046.71 296.305 1052.25 291.829 1055.66 286.133C1059.08 280.436 1060.79 273.926 1060.79 266.602C1060.79 257.65 1057.78 250 1051.76 243.652C1045.74 237.305 1037.43 231.364 1026.86 225.83C1016.44 220.296 1004.64 214.355 991.455 208.008C983.154 204.102 974.121 199.382 964.355 193.848C954.59 188.151 945.312 181.234 936.523 173.096C927.734 164.958 920.492 155.111 914.795 143.555C909.261 131.836 906.494 117.839 906.494 101.562C906.494 80.2409 911.377 62.0117 921.143 46.875C930.908 31.7383 944.824 20.1823 962.891 12.207C981.12 4.06901 1002.6 0 1027.34 0C1045.9 0 1063.56 2.19727 1080.32 6.5918C1097.25 10.8236 1114.91 17.0085 1133.3 25.1465L1108.89 83.9844C1092.45 77.3112 1077.72 72.1842 1064.7 68.6035C1051.68 64.86 1038.41 62.9883 1024.9 62.9883C1015.46 62.9883 1007.41 64.5345 1000.73 67.627C994.059 70.5566 989.014 74.7884 985.596 80.3223C982.178 85.6934 980.469 91.9596 980.469 99.1211C980.469 107.585 982.91 114.746 987.793 120.605C992.839 126.302 1000.33 131.836 1010.25 137.207C1020.35 142.578 1032.88 148.844 1047.85 156.006C1066.08 164.632 1081.62 173.665 1094.48 183.105C1107.5 192.383 1117.51 203.369 1124.51 216.064C1131.51 228.597 1135.01 244.222 1135.01 262.939ZM1199.71 362.061V5.12695H1275.39V362.061H1199.71ZM1661.38 180.176C1661.38 220.378 1653.65 253.988 1638.18 281.006C1622.88 307.861 1600.67 328.125 1571.53 341.797C1542.4 355.306 1507.32 362.061 1466.31 362.061H1365.23V5.12695H1477.29C1514.73 5.12695 1547.2 11.8001 1574.71 25.1465C1602.21 38.3301 1623.54 57.9427 1638.67 83.9844C1653.81 109.863 1661.38 141.927 1661.38 180.176ZM1582.76 182.129C1582.76 155.762 1578.86 134.115 1571.04 117.188C1563.4 100.098 1552 87.4837 1536.87 79.3457C1521.89 71.2077 1503.34 67.1387 1481.2 67.1387H1440.92V299.561H1473.39C1510.34 299.561 1537.76 289.714 1555.66 270.02C1573.73 250.326 1582.76 221.029 1582.76 182.129ZM1940.92 362.061H1735.35V5.12695H1940.92V67.1387H1811.04V145.508H1931.88V207.52H1811.04V299.561H1940.92V362.061ZM2332.28 362.061H2236.08L2080.81 92.041H2078.61C2079.26 103.271 2079.83 114.583 2080.32 125.977C2080.81 137.37 2081.3 148.763 2081.79 160.156C2082.28 171.387 2082.76 182.699 2083.25 194.092V362.061H2015.62V5.12695H2111.08L2266.11 272.461H2267.82C2267.5 261.393 2267.09 250.407 2266.6 239.502C2266.11 228.597 2265.62 217.692 2265.14 206.787C2264.81 195.882 2264.49 184.977 2264.16 174.072V5.12695H2332.28V362.061ZM2560.06 362.061H2484.38V68.1152H2387.45V5.12695H2656.98V68.1152H2560.06V362.061ZM2917.48 362.061H2711.91V5.12695H2917.48V67.1387H2787.6V145.508H2908.45V207.52H2787.6V299.561H2917.48V362.061Z" fill="#AA642A"/>
</svg>
