<svg width="4546" height="472" viewBox="0 0 4546 472" fill="none" xmlns="http://www.w3.org/2000/svg">
<path d="M114.014 110.107C160.075 110.107 193.685 120.036 214.844 139.893C236.003 159.587 246.582 186.768 246.582 221.436C246.582 237.061 244.222 252.035 239.502 266.357C234.782 280.518 227.051 293.132 216.309 304.199C205.729 315.267 191.569 324.056 173.828 330.566C156.087 336.914 134.196 340.088 108.154 340.088H75.6836V467.041H0V110.107H114.014ZM110.107 172.119H75.6836V278.076H100.586C114.746 278.076 127.035 276.204 137.451 272.461C147.868 268.717 155.924 262.858 161.621 254.883C167.318 246.908 170.166 236.654 170.166 224.121C170.166 206.543 165.283 193.522 155.518 185.059C145.752 176.432 130.615 172.119 110.107 172.119ZM417.969 110.107C450.358 110.107 477.051 114.014 498.047 121.826C519.206 129.639 534.912 141.439 545.166 157.227C555.42 173.014 560.547 192.952 560.547 217.041C560.547 233.317 557.454 247.559 551.27 259.766C545.085 271.973 536.947 282.308 526.855 290.771C516.764 299.235 505.859 306.152 494.141 311.523L599.121 467.041H515.137L429.932 330.078H389.648V467.041H313.965V110.107H417.969ZM412.598 172.119H389.648V268.555H414.062C439.128 268.555 457.031 264.404 467.773 256.104C478.678 247.64 484.131 235.27 484.131 218.994C484.131 202.067 478.271 190.023 466.553 182.861C454.997 175.7 437.012 172.119 412.598 172.119ZM968.018 288.086C968.018 315.592 964.6 340.658 957.764 363.281C950.928 385.742 940.511 405.111 926.514 421.387C912.679 437.663 895.101 450.195 873.779 458.984C852.458 467.611 827.23 471.924 798.096 471.924C768.962 471.924 743.734 467.611 722.412 458.984C701.09 450.195 683.431 437.663 669.434 421.387C655.599 405.111 645.264 385.661 638.428 363.037C631.592 340.413 628.174 315.267 628.174 287.598C628.174 250.651 634.196 218.506 646.24 191.162C658.447 163.656 677.165 142.334 702.393 127.197C727.62 112.061 759.684 104.492 798.584 104.492C837.321 104.492 869.141 112.061 894.043 127.197C919.108 142.334 937.663 163.656 949.707 191.162C961.914 218.669 968.018 250.977 968.018 288.086ZM707.52 288.086C707.52 312.988 710.612 334.473 716.797 352.539C723.145 370.443 732.992 384.277 746.338 394.043C759.684 403.646 776.937 408.447 798.096 408.447C819.58 408.447 836.995 403.646 850.342 394.043C863.688 384.277 873.372 370.443 879.395 352.539C885.579 334.473 888.672 312.988 888.672 288.086C888.672 250.651 881.673 221.191 867.676 199.707C853.678 178.223 830.648 167.48 798.584 167.48C777.262 167.48 759.847 172.363 746.338 182.129C732.992 191.732 723.145 205.566 716.797 223.633C710.612 241.536 707.52 263.021 707.52 288.086ZM1179.69 467.041H1104V173.096H1007.08V110.107H1276.61V173.096H1179.69V467.041ZM1537.11 467.041H1331.54V110.107H1537.11V172.119H1407.23V250.488H1528.08V312.5H1407.23V404.541H1537.11V467.041ZM1763.43 167.969C1748.94 167.969 1736.08 170.817 1724.85 176.514C1713.79 182.048 1704.43 190.104 1696.78 200.684C1689.29 211.263 1683.59 224.04 1679.69 239.014C1675.78 253.988 1673.83 270.833 1673.83 289.551C1673.83 314.779 1676.92 336.344 1683.11 354.248C1689.45 371.989 1699.22 385.579 1712.4 395.02C1725.59 404.297 1742.59 408.936 1763.43 408.936C1777.91 408.936 1792.4 407.308 1806.88 404.053C1821.53 400.798 1837.4 396.159 1854.49 390.137V453.613C1838.7 460.124 1823.16 464.762 1807.86 467.529C1792.56 470.459 1775.39 471.924 1756.35 471.924C1719.56 471.924 1689.29 464.355 1665.53 449.219C1641.93 433.919 1624.43 412.598 1613.04 385.254C1601.64 357.747 1595.95 325.684 1595.95 289.062C1595.95 262.044 1599.61 237.305 1606.93 214.844C1614.26 192.383 1625 172.933 1639.16 156.494C1653.32 140.055 1670.82 127.36 1691.65 118.408C1712.48 109.456 1736.41 104.98 1763.43 104.98C1781.17 104.98 1798.91 107.259 1816.65 111.816C1834.55 116.211 1851.64 122.314 1867.92 130.127L1843.51 191.65C1830.16 185.303 1816.73 179.769 1803.22 175.049C1789.71 170.329 1776.45 167.969 1763.43 167.969ZM2082.28 167.969C2067.79 167.969 2054.93 170.817 2043.7 176.514C2032.63 182.048 2023.27 190.104 2015.62 200.684C2008.14 211.263 2002.44 224.04 1998.54 239.014C1994.63 253.988 1992.68 270.833 1992.68 289.551C1992.68 314.779 1995.77 336.344 2001.95 354.248C2008.3 371.989 2018.07 385.579 2031.25 395.02C2044.43 404.297 2061.44 408.936 2082.28 408.936C2096.76 408.936 2111.25 407.308 2125.73 404.053C2140.38 400.798 2156.25 396.159 2173.34 390.137V453.613C2157.55 460.124 2142.01 464.762 2126.71 467.529C2111.41 470.459 2094.24 471.924 2075.2 471.924C2038.41 471.924 2008.14 464.355 1984.38 449.219C1960.77 433.919 1943.28 412.598 1931.88 385.254C1920.49 357.747 1914.79 325.684 1914.79 289.062C1914.79 262.044 1918.46 237.305 1925.78 214.844C1933.11 192.383 1943.85 172.933 1958.01 156.494C1972.17 140.055 1989.66 127.36 2010.5 118.408C2031.33 109.456 2055.26 104.98 2082.28 104.98C2100.02 104.98 2117.76 107.259 2135.5 111.816C2153.4 116.211 2170.49 122.314 2186.77 130.127L2162.35 191.65C2149.01 185.303 2135.58 179.769 2122.07 175.049C2108.56 170.329 2095.3 167.969 2082.28 167.969ZM2249.51 467.041V110.107H2325.2V467.041H2249.51ZM2739.01 288.086C2739.01 315.592 2735.6 340.658 2728.76 363.281C2721.92 385.742 2711.51 405.111 2697.51 421.387C2683.68 437.663 2666.1 450.195 2644.78 458.984C2623.45 467.611 2598.23 471.924 2569.09 471.924C2539.96 471.924 2514.73 467.611 2493.41 458.984C2472.09 450.195 2454.43 437.663 2440.43 421.387C2426.6 405.111 2416.26 385.661 2409.42 363.037C2402.59 340.413 2399.17 315.267 2399.17 287.598C2399.17 250.651 2405.19 218.506 2417.24 191.162C2429.44 163.656 2448.16 142.334 2473.39 127.197C2498.62 112.061 2530.68 104.492 2569.58 104.492C2608.32 104.492 2640.14 112.061 2665.04 127.197C2690.1 142.334 2708.66 163.656 2720.7 191.162C2732.91 218.669 2739.01 250.977 2739.01 288.086ZM2478.52 288.086C2478.52 312.988 2481.61 334.473 2487.79 352.539C2494.14 370.443 2503.99 384.277 2517.33 394.043C2530.68 403.646 2547.93 408.447 2569.09 408.447C2590.58 408.447 2607.99 403.646 2621.34 394.043C2634.68 384.277 2644.37 370.443 2650.39 352.539C2656.58 334.473 2659.67 312.988 2659.67 288.086C2659.67 250.651 2652.67 221.191 2638.67 199.707C2624.67 178.223 2601.64 167.48 2569.58 167.48C2548.26 167.48 2530.84 172.363 2517.33 182.129C2503.99 191.732 2494.14 205.566 2487.79 223.633C2481.61 241.536 2478.52 263.021 2478.52 288.086ZM2665.04 0V5.12695C2660.32 9.68424 2654.13 15.2995 2646.48 21.9727C2638.83 28.6458 2630.62 35.6445 2621.83 42.9688C2613.04 50.1302 2604.41 57.0475 2595.95 63.7207C2587.48 70.2311 2580.08 75.6836 2573.73 80.0781H2524.17V73.4863C2529.54 67.3014 2535.73 59.9772 2542.72 51.5137C2549.89 42.8874 2556.97 34.0169 2563.96 24.9023C2570.96 15.7878 2576.82 7.48698 2581.54 0H2665.04ZM3129.64 467.041H3033.45L2878.17 197.021H2875.98C2876.63 208.252 2877.2 219.564 2877.69 230.957C2878.17 242.35 2878.66 253.743 2879.15 265.137C2879.64 276.367 2880.13 287.679 2880.62 299.072V467.041H2812.99V110.107H2908.45L3063.48 377.441H3065.19C3064.86 366.374 3064.45 355.387 3063.96 344.482C3063.48 333.577 3062.99 322.673 3062.5 311.768C3062.17 300.863 3061.85 289.958 3061.52 279.053V110.107H3129.64V467.041ZM3501.22 167.969C3486.74 167.969 3473.88 170.817 3462.65 176.514C3451.58 182.048 3442.22 190.104 3434.57 200.684C3427.08 211.263 3421.39 224.04 3417.48 239.014C3413.57 253.988 3411.62 270.833 3411.62 289.551C3411.62 314.779 3414.71 336.344 3420.9 354.248C3427.25 371.989 3437.01 385.579 3450.2 395.02C3463.38 404.297 3480.39 408.936 3501.22 408.936C3515.71 408.936 3530.19 407.308 3544.68 404.053C3559.33 400.798 3575.2 396.159 3592.29 390.137V453.613C3576.5 460.124 3560.95 464.762 3545.65 467.529C3530.35 470.459 3513.18 471.924 3494.14 471.924C3457.36 471.924 3427.08 464.355 3403.32 449.219C3379.72 433.919 3362.22 412.598 3350.83 385.254C3339.44 357.747 3333.74 325.684 3333.74 289.062C3333.74 262.044 3337.4 237.305 3344.73 214.844C3352.05 192.383 3362.79 172.933 3376.95 156.494C3391.11 140.055 3408.61 127.36 3429.44 118.408C3450.28 109.456 3474.2 104.98 3501.22 104.98C3518.96 104.98 3536.7 107.259 3554.44 111.816C3572.35 116.211 3589.44 122.314 3605.71 130.127L3581.3 191.65C3567.95 185.303 3554.52 179.769 3541.02 175.049C3527.51 170.329 3514.24 167.969 3501.22 167.969ZM3668.46 467.041V110.107H3744.14V467.041H3668.46ZM4114.01 110.107L3992.68 467.041H3910.16L3789.06 110.107H3865.48L3932.62 322.51C3933.76 326.09 3935.63 332.845 3938.23 342.773C3940.84 352.539 3943.44 362.956 3946.04 374.023C3948.81 384.928 3950.68 393.962 3951.66 401.123C3952.64 393.962 3954.35 384.928 3956.79 374.023C3959.39 363.118 3961.91 352.783 3964.36 343.018C3966.96 333.089 3968.83 326.253 3969.97 322.51L4037.6 110.107H4114.01ZM4159.18 467.041V110.107H4234.86V467.041H4159.18ZM4324.71 467.041V110.107H4400.39V404.541H4545.17V467.041H4324.71Z" fill="#AA642A"/>
</svg>
