<svg width="5124" height="472" viewBox="0 0 5124 472" fill="none" xmlns="http://www.w3.org/2000/svg">
<path d="M232.666 367.92C232.666 389.079 227.539 407.471 217.285 423.096C207.031 438.721 192.057 450.765 172.363 459.229C152.832 467.692 129.069 471.924 101.074 471.924C88.7044 471.924 76.5788 471.11 64.6973 469.482C52.9785 467.855 41.6667 465.495 30.7617 462.402C20.0195 459.147 9.76562 455.16 0 450.439V380.127C16.9271 387.614 34.5052 394.368 52.7344 400.391C70.9635 406.413 89.0299 409.424 106.934 409.424C119.303 409.424 129.232 407.796 136.719 404.541C144.368 401.286 149.902 396.81 153.32 391.113C156.738 385.417 158.447 378.906 158.447 371.582C158.447 362.63 155.436 354.98 149.414 348.633C143.392 342.285 135.091 336.344 124.512 330.811C114.095 325.277 102.295 319.336 89.1113 312.988C80.8105 309.082 71.7773 304.362 62.0117 298.828C52.2461 293.132 42.9688 286.214 34.1797 278.076C25.3906 269.938 18.1478 260.091 12.4512 248.535C6.91732 236.816 4.15039 222.819 4.15039 206.543C4.15039 185.221 9.0332 166.992 18.7988 151.855C28.5645 136.719 42.4805 125.163 60.5469 117.188C78.776 109.049 100.26 104.98 125 104.98C143.555 104.98 161.214 107.178 177.979 111.572C194.906 115.804 212.565 121.989 230.957 130.127L206.543 188.965C190.104 182.292 175.374 177.165 162.354 173.584C149.333 169.84 136.068 167.969 122.559 167.969C113.118 167.969 105.062 169.515 98.3887 172.607C91.7155 175.537 86.6699 179.769 83.252 185.303C79.834 190.674 78.125 196.94 78.125 204.102C78.125 212.565 80.5664 219.727 85.4492 225.586C90.4948 231.283 97.9818 236.816 107.91 242.188C118.001 247.559 130.534 253.825 145.508 260.986C163.737 269.613 179.281 278.646 192.139 288.086C205.16 297.363 215.169 308.35 222.168 321.045C229.167 333.577 232.666 349.202 232.666 367.92ZM502.93 467.041H297.363V110.107H502.93V172.119H373.047V250.488H493.896V312.5H373.047V404.541H502.93V467.041ZM713.135 266.602H854.736V451.66C836.019 457.845 816.569 462.809 796.387 466.553C776.204 470.133 753.337 471.924 727.783 471.924C692.301 471.924 662.191 464.925 637.451 450.928C612.712 436.93 593.913 416.26 581.055 388.916C568.197 361.572 561.768 327.962 561.768 288.086C561.768 250.651 568.929 218.262 583.252 190.918C597.738 163.574 618.815 142.415 646.484 127.441C674.316 112.467 708.252 104.98 748.291 104.98C767.171 104.98 785.807 107.015 804.199 111.084C822.591 115.153 839.274 120.443 854.248 126.953L829.102 187.5C818.197 181.966 805.745 177.327 791.748 173.584C777.751 169.84 763.102 167.969 747.803 167.969C725.83 167.969 706.706 173.014 690.43 183.105C674.316 193.197 661.784 207.357 652.832 225.586C644.043 243.652 639.648 264.974 639.648 289.551C639.648 312.826 642.822 333.496 649.17 351.562C655.518 369.466 665.527 383.545 679.199 393.799C692.871 403.89 710.693 408.936 732.666 408.936C743.408 408.936 752.441 408.447 759.766 407.471C767.253 406.331 774.251 405.192 780.762 404.053V329.59H713.135V266.602ZM1230.47 110.107V341.064C1230.47 365.641 1225.02 387.858 1214.11 407.715C1203.37 427.409 1187.01 443.034 1165.04 454.59C1143.23 466.146 1115.72 471.924 1082.52 471.924C1035.32 471.924 999.349 459.88 974.609 435.791C949.87 411.702 937.5 379.801 937.5 340.088V110.107H1012.94V328.613C1012.94 358.073 1018.96 378.743 1031.01 390.625C1043.05 402.507 1060.87 408.447 1084.47 408.447C1101.07 408.447 1114.5 405.599 1124.76 399.902C1135.17 394.206 1142.82 385.417 1147.71 373.535C1152.59 361.654 1155.03 346.517 1155.03 328.125V110.107H1230.47ZM1421.88 110.107C1454.26 110.107 1480.96 114.014 1501.95 121.826C1523.11 129.639 1538.82 141.439 1549.07 157.227C1559.33 173.014 1564.45 192.952 1564.45 217.041C1564.45 233.317 1561.36 247.559 1555.18 259.766C1548.99 271.973 1540.85 282.308 1530.76 290.771C1520.67 299.235 1509.77 306.152 1498.05 311.523L1603.03 467.041H1519.04L1433.84 330.078H1393.55V467.041H1317.87V110.107H1421.88ZM1416.5 172.119H1393.55V268.555H1417.97C1443.03 268.555 1460.94 264.404 1471.68 256.104C1482.58 247.64 1488.04 235.27 1488.04 218.994C1488.04 202.067 1482.18 190.023 1470.46 182.861C1458.9 175.7 1440.92 172.119 1416.5 172.119ZM1647.95 467.041V110.107H1723.63V467.041H1647.95ZM2109.62 285.156C2109.62 325.358 2101.89 358.968 2086.43 385.986C2071.13 412.842 2048.91 433.105 2019.78 446.777C1990.64 460.286 1955.57 467.041 1914.55 467.041H1813.48V110.107H1925.54C1962.97 110.107 1995.44 116.781 2022.95 130.127C2050.46 143.311 2071.78 162.923 2086.91 188.965C2102.05 214.844 2109.62 246.908 2109.62 285.156ZM2031.01 287.109C2031.01 260.742 2027.1 239.095 2019.29 222.168C2011.64 205.078 2000.24 192.464 1985.11 184.326C1970.13 176.188 1951.58 172.119 1929.44 172.119H1889.16V404.541H1921.63C1958.58 404.541 1986 394.694 2003.91 375C2021.97 355.306 2031.01 326.009 2031.01 287.109ZM2402.1 467.041L2376.22 382.08H2246.09L2220.21 467.041H2138.67L2264.65 108.643H2357.18L2483.64 467.041H2402.1ZM2358.15 318.604L2332.28 235.596C2330.65 230.062 2328.45 222.982 2325.68 214.355C2323.08 205.566 2320.39 196.696 2317.63 187.744C2315.02 178.63 2312.91 170.736 2311.28 164.062C2309.65 170.736 2307.37 179.036 2304.44 188.965C2301.68 198.73 2298.99 208.008 2296.39 216.797C2293.78 225.586 2291.91 231.852 2290.77 235.596L2265.14 318.604H2358.15ZM2824.95 285.156C2824.95 325.358 2817.22 358.968 2801.76 385.986C2786.46 412.842 2764.24 433.105 2735.11 446.777C2705.97 460.286 2670.9 467.041 2629.88 467.041H2528.81V110.107H2640.87C2678.3 110.107 2710.77 116.781 2738.28 130.127C2765.79 143.311 2787.11 162.923 2802.25 188.965C2817.38 214.844 2824.95 246.908 2824.95 285.156ZM2746.34 287.109C2746.34 260.742 2742.43 239.095 2734.62 222.168C2726.97 205.078 2715.58 192.464 2700.44 184.326C2685.47 176.188 2666.91 172.119 2644.78 172.119H2604.49V404.541H2636.96C2673.91 404.541 2701.33 394.694 2719.24 375C2737.3 355.306 2746.34 326.009 2746.34 287.109ZM3142.82 110.107C3188.88 110.107 3222.49 120.036 3243.65 139.893C3264.81 159.587 3275.39 186.768 3275.39 221.436C3275.39 237.061 3273.03 252.035 3268.31 266.357C3263.59 280.518 3255.86 293.132 3245.12 304.199C3234.54 315.267 3220.38 324.056 3202.64 330.566C3184.9 336.914 3163 340.088 3136.96 340.088H3104.49V467.041H3028.81V110.107H3142.82ZM3138.92 172.119H3104.49V278.076H3129.39C3143.55 278.076 3155.84 276.204 3166.26 272.461C3176.68 268.717 3184.73 262.858 3190.43 254.883C3196.13 246.908 3198.97 236.654 3198.97 224.121C3198.97 206.543 3194.09 193.522 3184.33 185.059C3174.56 176.432 3159.42 172.119 3138.92 172.119ZM3633.3 110.107V341.064C3633.3 365.641 3627.85 387.858 3616.94 407.715C3606.2 427.409 3589.84 443.034 3567.87 454.59C3546.06 466.146 3518.55 471.924 3485.35 471.924C3438.15 471.924 3402.18 459.88 3377.44 435.791C3352.7 411.702 3340.33 379.801 3340.33 340.088V110.107H3415.77V328.613C3415.77 358.073 3421.79 378.743 3433.84 390.625C3445.88 402.507 3463.7 408.447 3487.3 408.447C3503.91 408.447 3517.33 405.599 3527.59 399.902C3538 394.206 3545.65 385.417 3550.54 373.535C3555.42 361.654 3557.86 346.517 3557.86 328.125V110.107H3633.3ZM3582.76 0V5.12695C3578.04 9.68424 3571.86 15.2995 3564.21 21.9727C3556.56 28.6458 3548.34 35.6445 3539.55 42.9688C3530.76 50.1302 3522.14 57.0475 3513.67 63.7207C3505.21 70.2311 3497.8 75.6836 3491.46 80.0781H3441.89V73.4863C3447.27 67.3014 3453.45 59.9772 3460.45 51.5137C3467.61 42.8874 3474.69 34.0169 3481.69 24.9023C3488.69 15.7878 3494.55 7.48698 3499.27 0H3582.76ZM3720.7 110.107H3831.79C3879.31 110.107 3915.28 116.781 3939.7 130.127C3964.11 143.473 3976.32 166.911 3976.32 200.439C3976.32 213.949 3974.12 226.156 3969.73 237.061C3965.49 247.965 3959.31 256.917 3951.17 263.916C3943.03 270.915 3933.11 275.472 3921.39 277.588V280.029C3933.27 282.471 3944.01 286.702 3953.61 292.725C3963.22 298.584 3970.87 307.21 3976.56 318.604C3982.42 329.834 3985.35 344.808 3985.35 363.525C3985.35 385.173 3980.06 403.727 3969.48 419.189C3958.9 434.652 3943.77 446.533 3924.07 454.834C3904.54 462.972 3881.27 467.041 3854.25 467.041H3720.7V110.107ZM3796.39 251.465H3840.33C3862.3 251.465 3877.52 248.047 3885.99 241.211C3894.45 234.212 3898.68 223.958 3898.68 210.449C3898.68 196.777 3893.64 187.012 3883.54 181.152C3873.62 175.13 3857.83 172.119 3836.18 172.119H3796.39V251.465ZM3796.39 311.523V404.541H3845.7C3868.49 404.541 3884.36 400.146 3893.31 391.357C3902.26 382.568 3906.74 370.768 3906.74 355.957C3906.74 347.168 3904.79 339.437 3900.88 332.764C3896.97 326.09 3890.38 320.882 3881.1 317.139C3871.99 313.395 3859.38 311.523 3843.26 311.523H3796.39ZM4056.64 467.041V110.107H4132.32V404.541H4277.1V467.041H4056.64ZM4339.36 467.041V110.107H4415.04V467.041H4339.36ZM4656.49 167.969C4642.01 167.969 4629.15 170.817 4617.92 176.514C4606.85 182.048 4597.49 190.104 4589.84 200.684C4582.36 211.263 4576.66 224.04 4572.75 239.014C4568.85 253.988 4566.89 270.833 4566.89 289.551C4566.89 314.779 4569.99 336.344 4576.17 354.248C4582.52 371.989 4592.29 385.579 4605.47 395.02C4618.65 404.297 4635.66 408.936 4656.49 408.936C4670.98 408.936 4685.47 407.308 4699.95 404.053C4714.6 400.798 4730.47 396.159 4747.56 390.137V453.613C4731.77 460.124 4716.23 464.762 4700.93 467.529C4685.63 470.459 4668.46 471.924 4649.41 471.924C4612.63 471.924 4582.36 464.355 4558.59 449.219C4534.99 433.919 4517.5 412.598 4506.1 385.254C4494.71 357.747 4489.01 325.684 4489.01 289.062C4489.01 262.044 4492.68 237.305 4500 214.844C4507.32 192.383 4518.07 172.933 4532.23 156.494C4546.39 140.055 4563.88 127.36 4584.72 118.408C4605.55 109.456 4629.48 104.98 4656.49 104.98C4674.24 104.98 4691.98 107.259 4709.72 111.816C4727.62 116.211 4744.71 122.314 4760.99 130.127L4736.57 191.65C4723.23 185.303 4709.8 179.769 4696.29 175.049C4682.78 170.329 4669.51 167.969 4656.49 167.969ZM5042.24 467.041L5016.36 382.08H4886.23L4860.35 467.041H4778.81L4904.79 108.643H4997.31L5123.78 467.041H5042.24ZM4998.29 318.604L4972.41 235.596C4970.78 230.062 4968.59 222.982 4965.82 214.355C4963.22 205.566 4960.53 196.696 4957.76 187.744C4955.16 178.63 4953.04 170.736 4951.42 164.062C4949.79 170.736 4947.51 179.036 4944.58 188.965C4941.81 198.73 4939.13 208.008 4936.52 216.797C4933.92 225.586 4932.05 231.852 4930.91 235.596L4905.27 318.604H4998.29Z" fill="#AA642A"/>
</svg>
