<svg width="5146" height="368" viewBox="0 0 5146 368" fill="none" xmlns="http://www.w3.org/2000/svg">
<path d="M296.143 180.664C296.143 220.866 288.411 254.476 272.949 281.494C257.65 308.35 235.433 328.613 206.299 342.285C177.165 355.794 142.09 362.549 101.074 362.549H0V5.61523H112.061C149.495 5.61523 181.966 12.2884 209.473 25.6348C236.979 38.8184 258.301 58.431 273.438 84.4727C288.574 110.352 296.143 142.415 296.143 180.664ZM217.529 182.617C217.529 156.25 213.623 134.603 205.811 117.676C198.161 100.586 186.768 87.972 171.631 79.834C156.657 71.696 138.102 67.627 115.967 67.627H75.6836V300.049H108.154C145.101 300.049 172.526 290.202 190.43 270.508C208.496 250.814 217.529 221.517 217.529 182.617ZM575.684 362.549H370.117V5.61523H575.684V67.627H445.801V145.996H566.65V208.008H445.801V300.049H575.684V362.549ZM861.084 263.428C861.084 284.587 855.957 302.979 845.703 318.604C835.449 334.229 820.475 346.273 800.781 354.736C781.25 363.2 757.487 367.432 729.492 367.432C717.122 367.432 704.997 366.618 693.115 364.99C681.396 363.363 670.085 361.003 659.18 357.91C648.438 354.655 638.184 350.667 628.418 345.947V275.635C645.345 283.122 662.923 289.876 681.152 295.898C699.382 301.921 717.448 304.932 735.352 304.932C747.721 304.932 757.65 303.304 765.137 300.049C772.786 296.794 778.32 292.318 781.738 286.621C785.156 280.924 786.865 274.414 786.865 267.09C786.865 258.138 783.854 250.488 777.832 244.141C771.81 237.793 763.509 231.852 752.93 226.318C742.513 220.785 730.713 214.844 717.529 208.496C709.229 204.59 700.195 199.87 690.43 194.336C680.664 188.639 671.387 181.722 662.598 173.584C653.809 165.446 646.566 155.599 640.869 144.043C635.335 132.324 632.568 118.327 632.568 102.051C632.568 80.7292 637.451 62.5 647.217 47.3633C656.982 32.2266 670.898 20.6706 688.965 12.6953C707.194 4.55729 728.678 0.488281 753.418 0.488281C771.973 0.488281 789.632 2.68555 806.396 7.08008C823.324 11.3118 840.983 17.4967 859.375 25.6348L834.961 84.4727C818.522 77.7995 803.792 72.6725 790.771 69.0918C777.751 65.3483 764.486 63.4766 750.977 63.4766C741.536 63.4766 733.48 65.0228 726.807 68.1152C720.133 71.0449 715.088 75.2767 711.67 80.8105C708.252 86.1816 706.543 92.4479 706.543 99.6094C706.543 108.073 708.984 115.234 713.867 121.094C718.913 126.79 726.4 132.324 736.328 137.695C746.419 143.066 758.952 149.333 773.926 156.494C792.155 165.12 807.699 174.154 820.557 183.594C833.577 192.871 843.587 203.857 850.586 216.553C857.585 229.085 861.084 244.71 861.084 263.428ZM1144.29 362.549L1118.41 277.588H988.281L962.402 362.549H880.859L1006.84 4.15039H1099.37L1225.83 362.549H1144.29ZM1100.34 214.111L1074.46 131.104C1072.84 125.57 1070.64 118.49 1067.87 109.863C1065.27 101.074 1062.58 92.2038 1059.81 83.252C1057.21 74.1374 1055.09 66.2435 1053.47 59.5703C1051.84 66.2435 1049.56 74.5443 1046.63 84.4727C1043.86 94.2383 1041.18 103.516 1038.57 112.305C1035.97 121.094 1034.1 127.36 1032.96 131.104L1007.32 214.111H1100.34ZM1375 5.61523C1407.39 5.61523 1434.08 9.52148 1455.08 17.334C1476.24 25.1465 1491.94 36.9466 1502.2 52.7344C1512.45 68.5221 1517.58 88.4603 1517.58 112.549C1517.58 128.825 1514.49 143.066 1508.3 155.273C1502.12 167.48 1493.98 177.816 1483.89 186.279C1473.8 194.743 1462.89 201.66 1451.17 207.031L1556.15 362.549H1472.17L1386.96 225.586H1346.68V362.549H1271V5.61523H1375ZM1369.63 67.627H1346.68V164.062H1371.09C1396.16 164.062 1414.06 159.912 1424.8 151.611C1435.71 143.148 1441.16 130.778 1441.16 114.502C1441.16 97.5749 1435.3 85.5306 1423.58 78.3691C1412.03 71.2077 1394.04 67.627 1369.63 67.627ZM1705.08 5.61523C1737.47 5.61523 1764.16 9.52148 1785.16 17.334C1806.32 25.1465 1822.02 36.9466 1832.28 52.7344C1842.53 68.5221 1847.66 88.4603 1847.66 112.549C1847.66 128.825 1844.56 143.066 1838.38 155.273C1832.19 167.48 1824.06 177.816 1813.96 186.279C1803.87 194.743 1792.97 201.66 1781.25 207.031L1886.23 362.549H1802.25L1717.04 225.586H1676.76V362.549H1601.07V5.61523H1705.08ZM1699.71 67.627H1676.76V164.062H1701.17C1726.24 164.062 1744.14 159.912 1754.88 151.611C1765.79 143.148 1771.24 130.778 1771.24 114.502C1771.24 97.5749 1765.38 85.5306 1753.66 78.3691C1742.11 71.2077 1724.12 67.627 1699.71 67.627ZM2255.13 183.594C2255.13 211.1 2251.71 236.165 2244.87 258.789C2238.04 281.25 2227.62 300.618 2213.62 316.895C2199.79 333.171 2182.21 345.703 2160.89 354.492C2139.57 363.118 2114.34 367.432 2085.21 367.432C2056.07 367.432 2030.84 363.118 2009.52 354.492C1988.2 345.703 1970.54 333.171 1956.54 316.895C1942.71 300.618 1932.37 281.169 1925.54 258.545C1918.7 235.921 1915.28 210.775 1915.28 183.105C1915.28 146.159 1921.31 114.014 1933.35 86.6699C1945.56 59.1634 1964.27 37.8418 1989.5 22.7051C2014.73 7.56836 2046.79 0 2085.69 0C2124.43 0 2156.25 7.56836 2181.15 22.7051C2206.22 37.8418 2224.77 59.1634 2236.82 86.6699C2249.02 114.176 2255.13 146.484 2255.13 183.594ZM1994.63 183.594C1994.63 208.496 1997.72 229.98 2003.91 248.047C2010.25 265.951 2020.1 279.785 2033.45 289.551C2046.79 299.154 2064.05 303.955 2085.21 303.955C2106.69 303.955 2124.1 299.154 2137.45 289.551C2150.8 279.785 2160.48 265.951 2166.5 248.047C2172.69 229.98 2175.78 208.496 2175.78 183.594C2175.78 146.159 2168.78 116.699 2154.79 95.2148C2140.79 73.7305 2117.76 62.9883 2085.69 62.9883C2064.37 62.9883 2046.96 67.8711 2033.45 77.6367C2020.1 87.2396 2010.25 101.074 2003.91 119.141C1997.72 137.044 1994.63 158.529 1994.63 183.594ZM2329.1 362.549V5.61523H2404.79V300.049H2549.56V362.549H2329.1ZM2611.82 362.549V5.61523H2687.5V300.049H2832.28V362.549H2611.82ZM3218.51 183.594C3218.51 211.1 3215.09 236.165 3208.25 258.789C3201.42 281.25 3191 300.618 3177 316.895C3163.17 333.171 3145.59 345.703 3124.27 354.492C3102.95 363.118 3077.72 367.432 3048.58 367.432C3019.45 367.432 2994.22 363.118 2972.9 354.492C2951.58 345.703 2933.92 333.171 2919.92 316.895C2906.09 300.618 2895.75 281.169 2888.92 258.545C2882.08 235.921 2878.66 210.775 2878.66 183.105C2878.66 146.159 2884.68 114.014 2896.73 86.6699C2908.94 59.1634 2927.65 37.8418 2952.88 22.7051C2978.11 7.56836 3010.17 0 3049.07 0C3087.81 0 3119.63 7.56836 3144.53 22.7051C3169.6 37.8418 3188.15 59.1634 3200.2 86.6699C3212.4 114.176 3218.51 146.484 3218.51 183.594ZM2958.01 183.594C2958.01 208.496 2961.1 229.98 2967.29 248.047C2973.63 265.951 2983.48 279.785 2996.83 289.551C3010.17 299.154 3027.43 303.955 3048.58 303.955C3070.07 303.955 3087.48 299.154 3100.83 289.551C3114.18 279.785 3123.86 265.951 3129.88 248.047C3136.07 229.98 3139.16 208.496 3139.16 183.594C3139.16 146.159 3132.16 116.699 3118.16 95.2148C3104.17 73.7305 3081.14 62.9883 3049.07 62.9883C3027.75 62.9883 3010.34 67.8711 2996.83 77.6367C2983.48 87.2396 2973.63 101.074 2967.29 119.141C2961.1 137.044 2958.01 158.529 2958.01 183.594ZM3633.06 263.428C3633.06 284.587 3627.93 302.979 3617.68 318.604C3607.42 334.229 3592.45 346.273 3572.75 354.736C3553.22 363.2 3529.46 367.432 3501.46 367.432C3489.1 367.432 3476.97 366.618 3465.09 364.99C3453.37 363.363 3442.06 361.003 3431.15 357.91C3420.41 354.655 3410.16 350.667 3400.39 345.947V275.635C3417.32 283.122 3434.9 289.876 3453.12 295.898C3471.35 301.921 3489.42 304.932 3507.32 304.932C3519.69 304.932 3529.62 303.304 3537.11 300.049C3544.76 296.794 3550.29 292.318 3553.71 286.621C3557.13 280.924 3558.84 274.414 3558.84 267.09C3558.84 258.138 3555.83 250.488 3549.8 244.141C3543.78 237.793 3535.48 231.852 3524.9 226.318C3514.49 220.785 3502.69 214.844 3489.5 208.496C3481.2 204.59 3472.17 199.87 3462.4 194.336C3452.64 188.639 3443.36 181.722 3434.57 173.584C3425.78 165.446 3418.54 155.599 3412.84 144.043C3407.31 132.324 3404.54 118.327 3404.54 102.051C3404.54 80.7292 3409.42 62.5 3419.19 47.3633C3428.96 32.2266 3442.87 20.6706 3460.94 12.6953C3479.17 4.55729 3500.65 0.488281 3525.39 0.488281C3543.95 0.488281 3561.6 2.68555 3578.37 7.08008C3595.3 11.3118 3612.96 17.4967 3631.35 25.6348L3606.93 84.4727C3590.49 77.7995 3575.76 72.6725 3562.74 69.0918C3549.72 65.3483 3536.46 63.4766 3522.95 63.4766C3513.51 63.4766 3505.45 65.0228 3498.78 68.1152C3492.11 71.0449 3487.06 75.2767 3483.64 80.8105C3480.22 86.1816 3478.52 92.4479 3478.52 99.6094C3478.52 108.073 3480.96 115.234 3485.84 121.094C3490.89 126.79 3498.37 132.324 3508.3 137.695C3518.39 143.066 3530.92 149.333 3545.9 156.494C3564.13 165.12 3579.67 174.154 3592.53 183.594C3605.55 192.871 3615.56 203.857 3622.56 216.553C3629.56 229.085 3633.06 244.71 3633.06 263.428ZM4021.73 183.594C4021.73 211.1 4018.31 236.165 4011.47 258.789C4004.64 281.25 3994.22 300.618 3980.22 316.895C3966.39 333.171 3948.81 345.703 3927.49 354.492C3906.17 363.118 3880.94 367.432 3851.81 367.432C3822.67 367.432 3797.44 363.118 3776.12 354.492C3754.8 345.703 3737.14 333.171 3723.14 316.895C3709.31 300.618 3698.97 281.169 3692.14 258.545C3685.3 235.921 3681.88 210.775 3681.88 183.105C3681.88 146.159 3687.91 114.014 3699.95 86.6699C3712.16 59.1634 3730.88 37.8418 3756.1 22.7051C3781.33 7.56836 3813.4 0 3852.29 0C3891.03 0 3922.85 7.56836 3947.75 22.7051C3972.82 37.8418 3991.37 59.1634 4003.42 86.6699C4015.62 114.176 4021.73 146.484 4021.73 183.594ZM3761.23 183.594C3761.23 208.496 3764.32 229.98 3770.51 248.047C3776.86 265.951 3786.7 279.785 3800.05 289.551C3813.4 299.154 3830.65 303.955 3851.81 303.955C3873.29 303.955 3890.71 299.154 3904.05 289.551C3917.4 279.785 3927.08 265.951 3933.11 248.047C3939.29 229.98 3942.38 208.496 3942.38 183.594C3942.38 146.159 3935.38 116.699 3921.39 95.2148C3907.39 73.7305 3884.36 62.9883 3852.29 62.9883C3830.97 62.9883 3813.56 67.8711 3800.05 77.6367C3786.7 87.2396 3776.86 101.074 3770.51 119.141C3764.32 137.044 3761.23 158.529 3761.23 183.594ZM4247.31 63.4766C4232.83 63.4766 4219.97 66.3249 4208.74 72.0215C4197.67 77.5553 4188.31 85.612 4180.66 96.1914C4173.18 106.771 4167.48 119.548 4163.57 134.521C4159.67 149.495 4157.71 166.341 4157.71 185.059C4157.71 210.286 4160.81 231.852 4166.99 249.756C4173.34 267.497 4183.11 281.087 4196.29 290.527C4209.47 299.805 4226.48 304.443 4247.31 304.443C4261.8 304.443 4276.29 302.816 4290.77 299.561C4305.42 296.305 4321.29 291.667 4338.38 285.645V349.121C4322.59 355.632 4307.05 360.27 4291.75 363.037C4276.45 365.967 4259.28 367.432 4240.23 367.432C4203.45 367.432 4173.18 359.863 4149.41 344.727C4125.81 329.427 4108.32 308.105 4096.92 280.762C4085.53 253.255 4079.83 221.191 4079.83 184.57C4079.83 157.552 4083.5 132.812 4090.82 110.352C4098.14 87.8906 4108.89 68.4408 4123.05 52.002C4137.21 35.5632 4154.7 22.8678 4175.54 13.916C4196.37 4.96419 4220.3 0.488281 4247.31 0.488281C4265.06 0.488281 4282.8 2.76693 4300.54 7.32422C4318.44 11.7188 4335.53 17.8223 4351.81 25.6348L4327.39 87.1582C4314.05 80.8105 4300.62 75.2767 4287.11 70.5566C4273.6 65.8366 4260.34 63.4766 4247.31 63.4766ZM4414.55 362.549V5.61523H4490.23V362.549H4414.55ZM4798.58 362.549L4772.71 277.588H4642.58L4616.7 362.549H4535.16L4661.13 4.15039H4753.66L4880.13 362.549H4798.58ZM4754.64 214.111L4728.76 131.104C4727.13 125.57 4724.93 118.49 4722.17 109.863C4719.56 101.074 4716.88 92.2038 4714.11 83.252C4711.51 74.1374 4709.39 66.2435 4707.76 59.5703C4706.14 66.2435 4703.86 74.5443 4700.93 84.4727C4698.16 94.2383 4695.48 103.516 4692.87 112.305C4690.27 121.094 4688.4 127.36 4687.26 131.104L4661.62 214.111H4754.64ZM4925.29 362.549V5.61523H5000.98V300.049H5145.75V362.549H4925.29Z" fill="#AA642A"/>
</svg>
